<?xml version="1.0" encoding="utf-8"?>
<!-- Generator: Adobe Illustrator 21.0.2, SVG Export Plug-In . SVG Version: 6.00 Build 0)  -->
<svg version="1.1" id="Ñëîé_1" xmlns="http://www.w3.org/2000/svg" xmlns:xlink="http://www.w3.org/1999/xlink" x="0px" y="0px"
	 viewBox="0 0 842 595" style="enable-background:new 0 0 842 595;" xml:space="preserve">
<style type="text/css">
	.st0{fill-rule:evenodd;clip-rule:evenodd;fill:#FFFFFF;}
	.st1{fill-rule:evenodd;clip-rule:evenodd;}
	.st2{fill-rule:evenodd;clip-rule:evenodd;fill:#2F879D;}
</style>
<g>
	<path class="st0" d="M112.5,122.9c-0.8,0-1.6-0.1-2.4-0.3c-4.1-1.3-6-3.8-6.8-5.6c-0.9-1.9-1.5-4.9,0.1-8.8
		c1.2-2.6,3.7-4.4,6.6-4.4l0.8,0c0.7,0,1.8,0,3.1,0.5c6.8,2.4,8.2,8,7.3,12C120.3,120.5,116,122.8,112.5,122.9L112.5,122.9z
		 M106.1,275.7c-2.2,0-4.5-0.7-6.2-1.9c-4.6-3.3-6.3-8.5-4.8-14c0.9-3,3.6-5.1,6.8-5.3l0.8,0c10.5-0.1,12.4,7.1,12.7,10.3
		c0.4,3.3-1.2,7.7-4.8,9.8C109.4,275.3,107.8,275.7,106.1,275.7L106.1,275.7L106.1,275.7z M164,277.9c-1.9,0-3.7-0.4-5.3-1.1
		c-2.8-1.3-4.2-3.5-5.5-5.5c-0.5-0.7-0.9-1.4-1.5-2.2c-1.5-2-1.9-4.7-1-7c0.9-2.4,3-4.1,5.5-4.6c0.9-0.1,1.8-0.4,2.6-0.6
		c1.5-0.4,3-0.8,4.7-0.8c1,0,1.9,0.1,2.9,0.4c3.8,1,6.6,4,8.1,6.3c1,1.5,2.1,4.1,0.8,7.9c-1.1,3.2-3.2,5.4-5.8,6.3
		C168,277.4,166.1,277.9,164,277.9L164,277.9z M124.9,304.3c-5.3,0.1-9.9-2.3-13.8-7c-2.1-2.6-2.2-6.2-0.3-8.9
		c3.1-4.2,7.8-6.8,12.8-6.8c2.2,0,4.2,0.4,6.1,1.4c2.8,1.3,8.8,5.5,5.7,15.5c-0.7,2.3-2.5,4.1-4.8,4.8
		C128.8,304,126.8,304.3,124.9,304.3L124.9,304.3L124.9,304.3z M184.6,304.7c-1.5,0-2.9-0.4-4.1-1.2c-1-0.7-1.9-1.4-2.7-2l-0.6-0.4
		c-1.7-1.3-2.7-3.3-2.8-5.4c-0.1-2.1,0.7-4.2,2.3-5.7l0.3-0.3c-0.9-2.8,0-5.9,2.4-7.8l1.6-1.3c1.3-1,2.9-1.6,4.5-1.6l0.8,0
		c1.9,0.2,3.7,1.2,4.9,2.7l2.3,2.9c1.3,1.6,1.8,3.6,1.6,5.5c-0.2,1.9-1.2,3.6-2.7,4.8c0.4,1.8,0.2,3.7-0.7,5.3
		C191.7,300.3,189.3,304.7,184.6,304.7L184.6,304.7L184.6,304.7z M119.2,453.1c-3.6,0-6.7-1.8-9.2-5.5c-2.2-3.1-1.5-7.4,1.4-9.8
		c2.5-2.1,5-3.1,7.5-3.1c3.4,0,6.5,1.8,8.5,4.9c2.3,3.7,1.2,9.1-2.4,11.6C123.1,452.4,121.2,453,119.2,453.1L119.2,453.1
		L119.2,453.1z M154.8,514.3c-1.1,0-2.3-0.2-3.3-0.8c-6.3-3.1-6.4-9.4-6.4-11.7l0-0.7c-0.1-2.9,0.4-5.5,0.9-7.8
		c0.1-0.5,0.2-1,0.3-1.5c1-5,4.9-8.5,9.8-8.5c0.9,0,1.8,0.1,2.6,0.3c5.9,1.4,9.4,6.5,8.4,12.5c-0.2,1.3-0.6,2.3-0.9,2.9l-0.1,0.2
		l-0.8,2.3c-0.8,2.2-1.6,4.4-2.4,6.7c-0.9,2.4-2.7,3.7-3.5,4.2l-0.1,0.1C158.1,513.7,156.5,514.3,154.8,514.3L154.8,514.3z
		 M255.8,542c-4.7,0-7.9-3.1-10.7-6c-1.4-1.4-2.2-3.4-2.1-5.4c0.1-2.1,1-4,2.6-5.3c0.5-0.4,1-0.8,1.4-1.2c1.2-1.1,2.6-2.4,4.5-3.4
		c1.7-0.9,3.5-1.4,5.4-1.4c4.5,0,8.6,2.6,10.3,6.6c2.3,5.3-0.3,11.7-5.8,14.6C260,541.1,258.1,542,255.8,542L255.8,542z M290,549.5
		c-3.5,0-5.9-1.8-7.7-3.3c-1.5-1.3-2.4-3.2-2.5-5.1c0-0.6,0-1.2,0.1-1.8c-0.5-0.6-0.9-1.1-1.1-1.4l-0.2-0.3
		c-2.2-3.1-1.7-7.3,1.1-9.7c2.3-1.9,4.6-3,7.1-3c3.1,0,6,1.6,8,4.4c1.1,1.5,1.5,3.4,1.3,5.4c0.7,0.6,1.3,1.4,1.9,2.4
		c1.7,2.6,1.5,5.9-0.3,8.3C295.1,548.7,292,549.4,290,549.5L290,549.5L290,549.5z M360.5,582c0.5,0,1.1,0,1.7-0.1
		c4.8-0.6,8.8-3.9,10.7-5.8c3.7-3.7,5-8.9,3.3-13.5c-1.6-4.5-5.7-7.7-10.8-8.3c-0.8-0.1-1.5-0.1-2.3-0.1c-0.5,0-0.9,0-1.3,0.1
		c-0.5-1.3-1-2.5-1.8-3.6c1.5,0,3-0.3,4.4-0.6c0.7-0.2,1.4-0.4,2.1-0.5c3.1-0.8,6.1-1.6,8.7-1.6c1.4,0,2.6,0.2,3.8,0.6
		c1,0.4,2.1,0.5,3.2,0.5c0.9,0,1.8-0.1,2.7-0.4c2.1-0.6,4.5-1,7-1.4c4.3-0.8,9.2-1.6,13.9-3.9c1.9-1,4.2-1.7,6.8-2.6l-0.5,4
		c-0.3,2.4,0.7,4.8,2.5,6.4c1.4,1.2,3.1,1.8,4.8,1.7c0.6,0,1.2-0.1,1.8-0.3c0.8-0.2,1.6-0.4,2.4-0.6c2-0.5,4.1-1,6.3-1.8
		c4.1-1.6,8.2-2.4,12.7-2.4c5.4,0,11.2,1,18.1,3.2c2.6,2.5,5.9,3.8,9.9,3.7c0.4,0,0.9,0,1.3-0.1c0.5,1.5,1.4,2.9,2.8,3.9
		c8.9,6.3,14.8,9.4,22.7,9.4c1.6,0,3.2-0.2,4.8-0.4c0.7,0.7,1.6,1.3,2.5,1.6c2.1,0.8,3.6,1.4,5.8,1.3c2.6,0,4.4-1,6.3-2
		c1.7-0.9,2.9-2.4,3.5-4.1c0.4-0.1,0.8-0.1,1.2-0.2c4.5-0.9,8.1-3,11.4-4.9l0.2-0.1l1.3,0.6c1,0.5,2.1,0.7,3.2,0.7
		c0.9,0,1.9-0.2,2.8-0.6c0.7-0.3,1.4-0.7,1.9-1.2c0.8,0.1,1.5,0.3,2.3,0.3c5,0,7.8-3.8,9.4-5.8c0.7-0.8,1.1-1.8,1.4-2.8
		c0.3,1.4,1,2.7,2.1,3.6c1.4,1.3,3.2,2,5.1,2l0.7-0.1c7.9-0.9,13.1-4.6,17.7-8.4c2.1-1.7,3.1-4.5,2.6-7.1c0.5-0.9,1-1.7,1.3-2.5
		l0.4-0.8c1.3,1.7,3.2,2.8,5.4,3l0.5,0c2.2,0,4.2-1,5.6-2.7c0.6-0.8,1.3-1.6,1.9-2.4c1.5-1.8,3-3.6,4.4-5.5l0.3-0.4
		c3.6-0.6,6.8-2.5,9.1-5.4c2.5-3.3,3.6-7.6,2.9-11.8c-0.3-2.1-0.8-4-1.3-5.8c-0.1-0.6-0.3-1.2-0.4-1.7c1-1,1.7-2.3,1.9-3.7
		c0.8,0.1,1.5,0.3,2.4,0.2c4.8,0,7.3-3.2,9.3-5.8c0.5-0.7,1-1.3,1.3-2l0.5,0c1.5,0,3.1-0.5,4.3-1.4c4.2-3.1,8.6-6.4,9.1-11.7
		c0.4-3.7-1.1-6.7-3.1-9.4c2,0.8,4.2,1.4,6.6,1.3l0,0c3.9,0,7.6-1.6,10.8-4.6c0.6-0.6,1.2-1.3,1.5-2.1c0.4-0.9,0.9-1.7,1.3-2.6
		c1-2,2.1-4.1,3.1-6.3c3.4-7.7,1.1-11.9-4.1-16.6c-0.5-0.4-1-0.8-1.6-1.1c0-0.6,0-1.1-0.1-1.7c-0.8-5.1-6.2-7.6-9.6-8.1
		c-0.8-0.1-1.7-0.1-2.6-0.1c-0.4,0-0.7,0-1.1,0l1.2-4.3c3.3,2.6,7,3.9,10.9,3.8c2.7,0,5.2-0.7,7.4-1.5c3.5,2.3,7.3,3.3,11,4.1
		c1,0.2,2,0.3,3,0.3c2,0,4.9-0.4,7.2-2.3c4.6-3.6,7.1-8.7,7.4-14.6c0.1-3.1-1.7-5.9-4.6-7.1c-0.9-0.4-1.8-0.6-2.8-0.5
		c-0.6,0-1.3,0.1-1.9,0.3c0.2-1.7,0.1-3.6-0.4-5.7c-0.4-1.7-1.4-3.2-2.9-4.3c-0.8-0.5-1.7-1.6-2.7-2.7c-2.2-2.6-5.3-6-10.3-7.8
		c-0.6-2.1-2.1-3.7-4.1-4.6c-1.7-0.7-3.3-1.4-5-2.2c-3.1-1.3-6.2-2.7-9.4-4l2.8-6.7c0.7,0.2,1.4,0.3,2.1,0.3c1.3,0,2.6-0.3,3.7-0.9
		l0.2,0.1c0.6,0.2,1.4,0.5,2.3,0.6c0.4,0.1,1.3,0.4,2.1,0.7c1.9,0.8,4.3,1.7,7,1.7c0.4,0,0.8,0,1.2-0.1c1.3,1.3,3.5,2.9,6.7,3.1
		l0.4,0.1c1,0.4,2.6,0.9,4.5,0.9c1.1,0,2.2-0.2,3.2-0.6c0.4-0.1,0.5-0.2,0.7-0.2c0.7,0,1.9,0.5,2.9,0.9c2.4,1.1,4.9,1.4,6.8,1.7
		l0.6,0.1c0.7,0.1,1.4,0.2,2.2,0.1c6.2,0,11.3-4,12.2-9.5c0.4-2.2,0.8-9.7-8.9-12.5c-0.8-0.2-1.5-0.3-2.3-0.3
		c-0.9,0-1.7,0.2-2.2,0.3c-1.5,0.3-3,1-4.1,2.2c-3.2-0.9-6-2.6-9.2-4.5c1-2.3,2.3-5.2,2.6-8.5c1.9-0.9,3.5-2.7,4-5l0.2-1
		c0.8-3.8-1.4-7.5-5.1-8.6l-13-3.8c-0.7-0.2-1.4-0.3-2.1-0.3H669c-0.4-0.3-0.8-0.5-1.2-0.8c-1.1-0.5-2.2-0.8-3.4-0.8
		c-0.6,0-1.2,0.1-1.8,0.3c-2.7-2.2-6.1-2.8-9-2.8c-1.5,0-3.1,0.2-5.1,0.5c-3.2,0.5-5.7,3.2-6.1,6.4c-0.3,3.2,1.6,6.3,4.6,7.6l2.6,1
		c-0.6,1.3-1.3,2.7-2,4.1c-0.2,0.4-0.4,0.8-0.6,1.1c-3.1-0.8-6.3-1.5-9.6-2.4c-0.4-1.5-1.2-2.8-2.4-3.8c1-1.9,1.2-4.2,0.4-6.2
		c0.6-0.1,1.2-0.3,1.9-0.5c2.9-0.8,5-3.3,5.3-6.3c0-0.4,0-0.8,0-1.2c2.7-0.5,4.9-1.7,6.6-3.5c2.7-3,3.2-6.6,3.1-9.6
		c0.6-0.1,1.3-0.3,2-0.6c1.5-0.7,3.2-1.1,5.1-1.1c2.5,0,5.2,0.5,8.1,1c1.1,0.2,2.2,0.4,3.3,0.6c4.6,0.8,9.1,1.9,13.9,3.2
		c1.5,0.4,3.1,0.8,4.6,1.2c-0.4,2.8,0.9,5.5,3.3,7.1l1.2,0.8c1.2,0.8,2.4,1.5,3.7,2.3c0.4,0.3,0.8,0.4,1.1,0.6
		c3.9,5.3,10,5.3,12.5,5.3l0.5,0c4.9,0,9.6-0.8,14.1-1.5c8.5-1.4,10.5-7.9,9.7-13c-0.4-2.4-1.9-4.4-4-5.4c-1-0.5-2.1-0.7-3.2-0.7
		c-0.7,0-1.4,0.1-2.1,0.3l-0.4-0.3c-0.5-0.4-1.1-0.9-1.6-1.3l3.6-12c0.5-1.5,0.4-3-0.1-4.4c2.2-0.3,4.5-1.1,7.2-2.6l0.2-0.1
		c4.4-0.1,10-2.2,12.6-11c1.1-3.7-0.9-7.6-4.5-8.9c-2.6-0.9-5.1-1.6-7.5-2c0.9-1.7,1.2-3.4,1.5-4.7c2.3-0.8,4-2.7,4.6-5.2
		c0.7-2.8-0.4-5.8-2.7-7.5c0.4-1.4,0.4-2.8-0.1-4.2l0.2,0c1,0,1.9-0.2,2.8-0.6c0.9-0.4,1.9-0.7,3-1.1c4.8-1.6,13.7-4.7,13.8-16.5
		c0-3.7-2.7-6.9-6.4-7.3l-0.8-0.1l5.4-6.9c1.3-1.6,1.8-3.7,1.4-5.8c-0.2-1-0.4-1.9-0.6-2.8c-0.1-0.5-0.3-1.1-0.3-1.4
		c0.5-5.3-1.2-10.2-4.9-14.2c-0.5-0.6-1.1-1.1-1.6-1.6c0.1-0.7,0.2-1.3,0.3-2c1.1,0.6,2.4,1,3.9,1.3c0.4,0.1,0.9,0.1,1.3,0.1
		c2.1,0,4-0.9,5.4-2.4c4.2-4.7,3.9-10,3.7-13.1c0-0.6,0-1.2,0-1.7c0-2.1,0-6.4-3.1-9.5c-2.9-2.9-6.7-2.9-8-2.9c-0.4,0-0.9,0-1.4,0
		c0-1.5,0-3,0.1-4.5c2.7-1,5.4-2.7,7.5-5.6c3.9-5.4,3.4-12.5,2.6-18c-0.3-1.9-1.4-3.7-3-4.8c-1.3-0.9-2.7-1.3-4.2-1.3
		c-0.4,0-0.9,0-1.3,0.1l-4.9,0.9l-1.5-1.7c-1.4-1.6-3.5-2.5-5.6-2.5l-0.7,0.1c-0.3-0.5-0.6-0.9-1-1.3c-3.4-3.2-7.2-4.9-10.7-5.7
		l-0.9-8.4l10.7-4.7c0.4-0.2,0.8-0.4,1.2-0.7l2.4,0.9c0.8,0.3,1.6,0.4,2.4,0.4c2.1,0,4.1-0.9,5.5-2.6c1.9-2.3,2.3-5.5,0.9-8.2
		c-2.1-3.9-4.5-8.3-9.6-8.6c-0.2-1.1-0.5-2.1-0.7-3c-0.4-1.5-0.7-2.9-0.6-3.7c0.3-2.2-0.5-4.4-2-5.9c-0.9-0.9-2-1.6-3.2-1.9
		c-0.3-0.5-0.6-1.1-1-1.6c-1.8-2.3-4.5-3.5-8.1-3.5l-0.1,0c-0.6,0-1.3,0.1-1.9,0.3c-7.4-3.3-13.9-4.8-20.4-4.7c-1.3,0-2.7,0.1-4,0.2
		l-0.1,0c-0.8-0.4-1.7-0.7-2.6-0.8l-0.7-0.1c2-0.4,4.1-1,6.6-1.7c1.9-0.6,3.6-2,4.5-3.8l1.1-2.4c0.5,0,0.9-0.1,1.3-0.1l0.2,0
		l0.9,0.1c3.5,0,5.8-2.2,7.2-3.6c0.4-0.3,0.8-0.7,1-0.9c2.2-1.7,3.2-4.5,2.6-7.2c-0.6-2.7-2.7-4.9-5.3-5.6c-1.7-0.4-3.3-0.7-4.8-0.8
		c-0.2-1.1-0.4-2.3-0.8-3.5c-0.8-2.6-2.9-4.6-5.6-5.1c-0.5-0.1-1-0.1-1.5-0.1c-2.2,0-4.2,1-5.7,2.8c-0.7,0.9-1.4,1.8-2,2.6
		c-1.3,1.6-2.3,3-3.4,4.2c-0.4-0.2-0.8-0.3-1.2-0.5c-0.8-0.3-1.6-0.4-2.4-0.4c-2.5,0-4.9,1.3-6.2,3.5l-3.1,5.2
		c-1.3,2.1-1.4,4.7-0.3,6.9c1.7,3.5,3.9,7.9,8.2,9.9h-0.2c-0.7-0.5-1.6-0.9-2.6-1.2c-0.8-0.3-1.5-0.4-2.3-0.4
		c-1.2,0-2.3,0.3-3.3,0.8l-0.5,0.3c-0.1-0.4-0.3-0.8-0.5-1.1c-0.7-1.4-1.8-2.4-3.1-3.1c0.4-0.8,0.6-1.7,0.6-2.7
		c0.1-2.6-1.2-5.1-3.4-6.5l-1.3-0.8c3.1-3.3,2.4-7.1,1.9-9c-0.8-2.7-2.6-4.8-4.9-5.9c1.4-0.9,2.5-2.1,3.5-3.5
		c3.5-5.6,2.8-11.7-1.8-16.1c-1.4-1.3-3.2-1.9-5-1.9c-1.6,0-3.3,0.6-4.6,1.7c-4.2,3.5-4.7,5-6.6,10.9c-0.9,2.8,0,5.9,2.3,7.8
		c0.7,0.6,1.4,1.1,2.2,1.5c-0.6,0.3-1.1,0.7-1.5,0.9l-0.5,0.3c-2.2,1.3-3.5,3.7-3.5,6.3v0c-0.9-0.4-1.9-0.6-3-0.6
		c-1.1,0-2.2,0.2-3.2,0.8l-3.7,1.8l-0.5-0.3c-0.8-0.4-1.1-1.3-2.1-4c-0.3-0.7-0.5-1.4-0.8-2.1c-1.7-4.4-4.6-8.5-8.1-11.2
		c-2.7-2.2-5.7-3.2-8.4-4.2c-1-0.3-1.9-0.6-2.7-1c-0.9-0.4-1.9-0.6-2.8-0.6c-1.3,0-2.6,0.4-3.7,1.1c-2,1.2-3.3,3.3-3.5,5.7
		c-0.1,1.4-0.5,2.7-2.3,4.5c-3.3,3.4-6,7.8-7.6,12.5c-0.1,0.4-0.3,0.9-0.4,1.3c-1,0-2,0.3-3,0.8c-5.2,2.7-7.1,6.8-7.6,10.5
		c-0.7,0.4-1.3,0.8-1.9,1.3c-1.3,1.3-2.1,3.1-2.2,4.9c-1.5,0.5-2.9,1.4-3.9,2.8c-1.8,2.4-2.6,4.8-3,7c-0.5-0.1-1-0.1-1.5-0.1
		c-0.9,0-1.8,0.2-2.6,0.5c-2.4,0.9-4.1,3.1-4.5,5.6c-0.1,0.5-0.1,0.9-0.2,1.4c0,0.3-0.1,0.7-0.2,1c-2.1,0.3-4.1,1.5-5.3,3.3
		c-1.3,2.1-1.5,4.8-0.4,7.1l5.8,11.8c1.1,2.3,3.3,3.8,5.8,4.1l0.8,0c2.2,0,4.4-1.1,5.7-2.9c3.2-4.2,5-8,5.9-11.3
		c0.4,0,0.7,0.1,1.1,0.1c1.8,0,3.5-0.7,4.9-1.9l0.4-0.3c1.3-1.2,2.4-2.4,3.2-3.7l0.8,0l0.7,0l1.4-0.1c3.2-0.4,5.8-2.7,6.4-5.9
		c0.9,3,1.8,5.9,2.8,9c0.6,1.9,1.3,3.9,1.9,6c0.6,1.9,2,3.5,3.7,4.4l-1.8,2.2c-1.4,1.8-1.8,4-1.4,6.1c-1.3-1.1-3-1.7-4.8-1.7l-0.7,0
		c-1.2-1.2-2.7-2.1-4.5-2.2l-0.9-0.1c-1.8,0-3.5,0.7-4.8,1.9l-0.6,0c-1.5,0-3,0.5-4.3,1.4c-0.6,0.5-1.4,1.1-2.1,2l-0.1,0
		c-0.9,0-1.7,0.1-2.6,0.5c-1.6,0.6-4.5,2.2-5.9,5.5c-3.1,1.2-5.2,2.8-6.3,5.3c-1,0.5-2,1.2-2.8,2.2c-0.3,0.3-0.5,0.6-0.8,0.9
		c0.8-1.6,1.5-3.6,2.6-6.5c1.3-3.6-0.4-7.6-3.9-9.2c-0.2-0.5-0.4-1.4-0.6-2.1c-0.5-2.2-1.2-4.9-3.1-7.5c-1.4-1.9-3.6-3.1-6-3l-0.3,0
		c-2.5,0.1-4.7,1.5-6,3.7l-4.5,7.9c-0.8,1.4-1.1,3.2-0.9,4.8c0.3,1.5,0.8,3.3,1.6,5.1c-0.4,0.6-0.8,1.2-1,1.9
		c-0.8,2.4-0.4,5.1,1.3,7.1l2.7,3.3l-0.4,0c-1.5,0-3.1,0.5-4.3,1.5l-1.1,0.8c-0.7,0.6-1.7,1.3-2.4,1.8c-1.2-0.7-2.4-1-3.7-1
		c-2,0-4,0.9-5.4,2.5l-3.9,4.5c-1.9,2.2-2.3,5.4-1,8.1c3,5.9,7.6,8.3,11.4,10.2c0.8,0.4,1.5,0.8,2.3,1.2c1.1,0.7,2.4,1,3.7,1l0.1,0
		c-0.2,0.8-0.3,1.6-0.4,2.4l-0.8,0.9l-0.7,0.8c-0.4,0.5-0.9,1.1-1.4,1.8c-0.4-0.7-1-1.3-1.6-1.8c-1.4-1.1-3-1.7-4.7-1.7
		c-1,0-1.9,0.2-2.8,0.6c-0.9,0.4-1.8,0.9-2.4,1.2v0l-0.9,0c-5,0-8.5,2.6-11.1,4.5c-0.5,0.4-1,0.8-1.6,1.2c-1.8,1.2-3,3.2-3.2,5.3
		c-0.2,2.2,0.5,4.3,2.1,5.9l0.9,0.9l-0.8,1.6c-1.7,3.5-0.3,7.7,3.1,9.5l4.5,2.5c1.1,0.6,2.3,0.9,3.6,0.9c0.8,0,1.5-0.1,2.3-0.4
		c-0.1,1.4,0,2.6,0,3.4l0.1,0.6l-6.1,0.1c-2.3,0-4.4,1.1-5.7,2.8c-1.4-1.7-3.5-2.8-5.8-2.7l-5.3,0c-0.8,0-1.7,0.2-2.4,0.5
		c-0.8-0.3-1.7-0.5-2.6-0.5c-0.5,0-1,0-1.5,0.1c-9.6,2.1-9.1,8.6-8.6,14.8c0.2,3.4,2.8,6.2,6.1,6.7c0.4,0,0.8,0.1,1.2,0.1
		c2.9,0,5.6-1.8,6.7-4.5l0.9-2.3h0.4l5.3,0c2,0,3.9-0.9,5.3-2.3l0.4-0.5l0.6,0.7c1.4,1.4,3.3,2.2,5.2,2.1l9.2-0.1
		c1.1,0,2.1-0.3,3.1-0.7l0.4,0.3c1.2,0.8,2.7,1.2,4.1,1.2c0.5,0,1,0,1.5-0.2l4.1-0.9c0.9,0.4,1.8,0.6,2.7,0.7l0.1,5.5
		c0,2,0.8,3.8,2.3,5.2c1.4,1.3,3.2,2,5.1,2l1,0c1.3,1.5,3.2,2.5,5.3,2.6l0.6,0h0.4c1.9,0,3.7-0.8,5-2.1c1.4-1.4,2.2-3.3,2.2-5.3
		l-0.1-6.9c0-0.6-0.1-1.3-0.3-1.9c0.7,0.2,1.4,0.4,2.1,0.4l0.7,0l0.1,13.3c0,2.2,1,4.2,2.7,5.6c1.3,1.1,3,1.7,4.7,1.7
		c0.4,0,0.9,0,1.3-0.1l0.6-0.1l0.8-0.2l0.7,0.5c1.2,0.8,2.6,1.2,4.1,1.2c1.2,0,2.3-0.3,3.4-0.9c2.4-1.3,3.8-3.8,3.8-6.4l-0.1-5.4
		c0-1.1-0.2-2.1-0.7-3c0.4-0.8,0.5-1.7,0.6-2.6c0.4-10.2,0.6-14.4-6.3-18c-1.1-0.5-2.3-0.8-3.4-0.8c-0.8,0-1.5,0.1-2.3,0.4
		c-0.7-0.2-1.4-0.3-2.2-0.3l-8.2,0.1c-4,0-7.3,3.3-7.2,7.3l0,0.6c0,0.7,0.1,1.3,0.3,1.9c-0.5-0.2-1.2-0.4-1.8-0.4l0-2.2
		c0-1.9-0.8-3.7-2.1-5l0.2-0.4c6.9-14.6,13.8-27.3,21.1-38.6c5.3-8.2,12.1-15.4,20.7-22l0.7-0.2l0.5-0.2c1.3-0.5,2.5-0.7,3.7-0.7
		c0.5,0,1,0,1.5,0.1l1.3,2l0.2,0.8c0.1,0.4,0.4,1,0.4,1.3c0.1,3.7,1.4,6.4,3,9l0,0.5c0.3,2.9-1.4,5.7-4.1,10
		c-3.2,5.2-6.9,12.3-7.1,21.5c0,1.1,0.2,2.1,0.6,3.1c-4.5,5.3-6,12-4.4,19.9c0.2,1,0.6,1.9,1.1,2.7c-0.4,1.6-0.2,3.3,0.5,4.9
		c1,2.2,3,3.7,5.3,4.1c0.1,0.4,0.3,0.8,0.4,1.1c0.5,1.5,1.2,3.5,2.5,5.4c0.9,1.3,1.7,3.4,2.4,5.8c0.5,1.4,0.9,2.8,1.5,4.2
		c0.2,0.4,0.4,0.8,0.6,1.1c-0.9,2.3-0.6,4.9,0.9,6.9c-1.7,0.9-3.4,2.4-4.2,5l-0.6,0.1c-1.2,0.3-2.3,0.6-3.6,0.9l-1.9,0.4
		c-2.6,0.6-4.6,2.6-5.3,5.2c-0.7,2.6,0.1,5.3,2,7.2c3.6,3.5,4.4,5,2.3,10.8c-0.8,2.4-0.4,5.1,1.2,7l0.4,0.6c-5.8,2.6-9,6-10.5,12.3
		c-1.3-1.8-3.3-3-5.6-3.2l-2.4-0.2l-0.1-7.6l2.9-0.2c3.9-0.2,6.9-3.5,6.9-7.3l-0.1-17.9c0-4-3.3-7.2-7.4-7.2l-29.4,0.3
		c-1.5,0-2.9,0.5-4,1.2c-1.1-0.8-2.4-1.3-3.9-1.4c-3.2-0.2-6.4-0.4-9.6-0.5c1-2.1,1.3-4.5,1.6-6.2c0.3-2.1-0.2-4.2-1.6-5.8
		c-1.3-1.6-3.3-2.6-5.4-2.6c-5.5-0.1-6.8-0.7-7.7-2.1c-1.1-1.8-2.9-3-4.9-3.4c-0.5-0.1-0.9-0.1-1.4-0.1c-1.6,0-3.2,0.5-4.5,1.5
		c-5.9,4.7-4.9,11-4.5,13.7l0.1,0.9c0.2,1.4,0.5,2.7,1.1,3.8c-2.4,0-4.8,0-7.2,0.1c-9.5,0.1-19.3,0.1-29-0.1l-0.2,0
		c-1.3,0-2.5,0.4-3.6,1c-1.3-1-2.9-1.7-4.7-1.7l-29,0.3c-1.4,0-2.6,0.4-3.7,1.1c-1-0.5-2.1-0.8-3.2-0.7l-47.2,0.4
		c-1.4,0-2.6,0.4-3.7,1c-0.9-0.6-1.9-1.1-3.1-1.3c-1.6-0.3-4.1-0.5-7.1-0.7c0.3-1,0.3-2.1,0.1-3.1c-0.5-3.2-1.9-5.6-3.5-7.3
		c1.1-0.2,2.1-0.7,3.1-1.3c1.9-1.4,3-3.6,3-5.9l-0.1-7.3c1.4,1.3,3.1,2,5,2l0.6,0c3.5-0.3,6.3-3.2,6.6-6.7c0-0.7,0.1-1.2,0.1-1.6
		c0-0.4,0.1-0.8,0.1-1.2l4.5,0.3l0.5,0c1.4,0,2.8-0.5,4-1.2l0.2,0.1l3.3,2.4c1.3,0.9,2.8,1.4,4.3,1.4c0.4,0,0.9-0.1,1.3-0.1
		c1.3-0.2,2.5-0.8,3.5-1.7c0.5,0.5,1.2,0.9,1.8,1.3l0.1,11.9c0,2,0.9,3.8,2.3,5.2c1.4,1.3,3.2,2.1,5.2,2l1.1,0l0.8-0.1
		c1.3,1.8,3.4,3.1,5.7,3.2l0.6,0l0.3,0c1.9,0,3.7-0.8,5-2.1l0.7-0.8l0.4,0.4c1.4,1.3,3.2,2,5.1,2l0.8,0c3.8-0.1,6.8-3.1,7-6.9
		l0.3-6.5c0.2-3.5-2.2-6.7-5.7-7.5l-0.9-0.2c-0.6-0.1-1.1-0.2-1.7-0.2c-1.4,0-2.7,0.4-3.9,1.1l-0.1-11c0-3.9-3.1-7-6.9-7.2h-0.6
		l-0.4,0c-0.9,0-1.8,0.2-2.7,0.5c-0.3-0.2-0.6-0.4-1-0.6c-1-0.5-2.2-0.8-3.3-0.8c-1.5,0-3,0.5-4.2,1.4l-4.8,3.5
		c-0.4-0.4-0.8-0.7-1.2-1l-3.4-2.2c-1.2-0.8-2.6-1.2-4.1-1.2c-0.5,0-1,0.1-1.4,0.1c-0.9,0.2-1.8,0.6-2.6,1.1
		c-1.4-1.2-3.1-1.8-4.9-1.8l-8.2,0.1c-2,0-3.9,0.8-5.3,2.3c-0.8,0.8-1.3,1.8-1.7,2.9l-0.5,0.1c-0.8,0.2-1.5,0.5-2.2,1
		c-0.9-3-3.6-5.2-6.9-5.3l-1,0c-1.9,0-3.7,0.8-5,2.1c-1.4,1.4-2.2,3.3-2.2,5.3l0.2,21.3l0,0.8c-0.6-0.2-1.3-0.3-2-0.3
		c-1,0-2,0.2-2.9,0.6c0.5-1.1,0.9-2.3,0.8-3.5l-0.1-7.7c0-0.6-0.1-1.2-0.3-1.8c0.1-0.4,0.2-0.8,0.2-1.3l0.5-7.2
		c0.1-1.9-0.5-3.9-1.8-5.3c-1.3-1.5-3.2-2.3-5.1-2.4l-0.8,0h-0.4l-0.4,0c0.2-0.5,0.4-1.1,0.4-1.7c0.3-2.2-0.5-4.4-2-5.9
		c-1-1.1-2.1-2.2-3.2-3.3c-2.4-2.4-4.8-4.9-7.1-7.4c-1.2-1.4-2.4-2.9-3.7-4.5c-1.4-1.8-2.8-3.6-4.5-5.5l-0.8-0.9
		c-1.4-1.7-3.5-4.2-7-5.8c0-0.4-0.1-0.8-0.3-1.2c-1-3.5-3.7-8.1-10.3-10.6c-0.9-0.3-1.8-0.5-2.7-0.5c-1.8,0-3.5,0.7-4.9,1.9
		l-0.7,0.8c-0.4-0.5-0.9-1-1.3-1.5c-0.6-0.6-1.1-1.3-1.7-1.9c-3.1-3.6-6-7.5-9-11.6l-0.8-1.1c-1.4-1.9-2.7-3.9-4-5.9
		c-2.7-4.2-5.6-8.6-9.4-12.5c-6.9-7.2-12.5-15.2-18.5-23.7c-3.7-5.3-7.6-10.8-11.7-16c-2.6-3.2-5.7-7.2-11.5-10
		c-1-0.5-2.2-0.8-3.3-0.8c-1.7,0-3.3,0.6-4.7,1.7c-2.2,1.9-3.1,4.9-2.2,7.7c2.7,8.7,7.9,15,12.5,20.6c0.9,1.2,1.9,2.3,2.8,3.5
		c7.8,9.9,13.8,19.7,18.3,29.9c1.4,3.2,3.5,5.8,5.4,8.1c0.5,0.6,0.9,1.2,1.4,1.7c0.9,1.2,1.9,2.1,2.7,2.7l0.6,0.5
		c4.9,6.1,9.8,12.2,14.6,18.4c4,5,8.1,10.1,12.1,15.1c3.1,3.8,6.7,6.5,10.8,8c0,0.4,0,0.7,0,1.1c0,0.7,0,2.4,0.9,4.2
		c0.8,1.4,1.7,3.1,2.7,4.9l0.2,0.4c-1.3,0.3-2.6,0.8-3.6,1.8c-1.2,1-1.9,2.4-2.3,3.9c-1.2-0.8-2.6-1.2-4-1.2h-0.5l-0.9,0.1
		c-0.2-0.4-0.5-0.7-0.8-1c-1.4-1.5-3.3-2.3-5.3-2.3H294c-2,0-3.9,0.8-5.3,2.3l0,0c-1.3-1.9-3.4-3.1-5.8-3.2c0.5-2.3-0.2-4.7-1.9-6.4
		c-0.9-1-1.9-1.9-2.8-2.8c-1.7-1.6-3.2-3.1-4.2-4.5l-1-1.4c-4.2-6.2-8.5-12.5-14.4-17.9l-0.4-0.8c-0.4-0.8-0.9-1.9-1.6-3
		c-0.9-1.4-1.9-2.3-2.7-3.1l-0.6-0.6c-1.4-1.5-3.4-2.4-5.4-2.4l-0.6,0c-2.3,0.2-4.3,1.4-5.5,3.3c-2,3.1-1.8,5.7-1.5,7.4
		c0.7,4.1,2.7,7.4,4.4,10c1.7,2.8,2.7,4.4,2.5,6.1c-0.4,4.4,2.5,7.3,4.1,8.9c2.4,2.5,4.9,5,7.4,7.4l-2,0c-1.8,0-3.4,0.7-4.7,1.8
		c-0.5-0.8-1.1-1.6-1.9-2.3c-2.8-2.5-6.7-5.7-11.4-7.7c-3.5-1.5-6.3-4.1-9-8.2c-1.5-2.4-3.4-5.1-5.7-7.6c-4.3-4.7-8.7-9.4-13-13.9
		c-3.3-3.5-6.5-6.9-9.8-10.4c-2.8-3.1-5.7-6.2-8.5-9.3c-3-3.2-5.9-6.4-8.9-9.6c-0.4-0.5-0.9-0.9-1.3-1.4c2.1-0.5,3.9-1.9,4.8-4
		c1.3-2.7,0.8-5.9-1.3-8.1c-1.3-1.4-2.5-2.8-3.7-4.1c-5.3-5.9-10.7-12.1-19.6-16.2c-1-0.5-2.1-0.7-3.1-0.7c-1.8,0-3.6,0.7-5,2
		l-0.6,0.6c-1.7-1.8-3.3-3.6-5-5.4c1.3-0.5,2.5-1.5,3.3-2.8c1.4-2.2,1.5-4.9,0.4-7.2c-1.9-3.8-4.6-8-10.7-10.5
		c-0.9-0.4-1.9-0.6-2.8-0.5c-1.5,0-3,0.5-4.3,1.4c-0.9,0.6-1.5,1.5-2.1,2.4c-1.5-1.6-5.6-5.9-5.6-5.9c-1.8-1.9-3.8-4.1-6.5-5.8
		c-2.7-1.8-6.3-2.9-9.8-3l-0.3,0c-3.8,0-7.1,2-9,5.3c-1.9,3.3-1.8,7.4,0.1,10.8c1.2,2.1,2.8,3.4,4,4.4l0.6,0.5
		c0.9,0.8,1.8,1.5,2.7,2.3c1.4,1.2,2.6,2.2,3.7,3.3c2.5,2.6,5.2,5.4,8.3,9.1c2.2,2.5,4.5,4.8,6.8,7c3.8,3.8,7.5,7.3,9.9,11.5
		c1.7,3,4.5,4.4,6.3,5.3c0.4,0.2,0.8,0.4,1.2,0.6c0.9,0.5,1.7,1,2.4,1.3c0.5,0.3,1.2,0.6,1.4,0.8l0.8,0.8c2.9,3.2,5.6,6.2,7.4,9.4
		c4.5,7.9,10.7,13.6,16.7,19.1c1.3,1.2,2.7,2.5,4,3.7c1.3,1.2,2.5,2.2,3.7,3.3c0.6,0.5,1.2,1,1.8,1.5c1,0.9,2.1,1.7,3.1,2.5
		c1.7,1.4,3.4,2.6,4.2,3.9c4,5.6,8.7,10.4,13.2,15c3.7,3.8,7.3,7.4,10.4,11.3c1.8,2.3,3.6,4.5,5.5,6.7c-1-0.4-2-0.6-2.9-0.8
		c-0.6-0.1-1.2-0.3-1.7-0.4c-0.8-0.3-1.5-0.4-2.3-0.4c-1.2,0-2.3,0.3-3.3,0.9c-0.1-0.4-0.2-0.9-0.3-1.3c-2.1-6-5.5-9.9-10.5-11.8
		c-1-0.4-2.1-0.6-3.1-0.6c-1.9,0-3.5,0.7-4.5,1.1h0c-1.4-4.1-3.8-9.5-12.2-9.4c-0.6,0-1.4,0-2.2,0.1l-0.7,0.1l-0.1-0.2
		c-3.7-7.1-9.2-10.2-13.6-12.6c-2-1.1-3.7-2.1-5.1-3.2c-1.4-1.2-3.1-1.8-4.9-1.8l-0.9,0.1c-2.1,0.3-4,1.5-5.1,3.3
		c-3.5,5.4-2.4,9.5-1.5,11.4c1.4,3,4.2,5,7.8,5.5c1.4,0.2,2.6,1.1,4.8,2.7c0.8,0.6,1.6,1.2,2.5,1.8c1.7,1.2,3.4,1.7,5.1,2.2
		c0.6,0.2,1.3,0.4,2.2,0.7c0.8,0.3,1.7,0.4,2.5,0.4c0.3,0,0.7,0,1-0.1c1.7,4.4,5.4,9.2,13.8,9.5l0.4,0c0.5,0,1-0.1,1.5-0.2
		c2.7,6.9,8.5,8.6,12.1,9.7c0.6,0.2,1.2,0.4,1.7,0.6c0.8,0.3,1.6,0.4,2.4,0.4c1.2,0,2.3-0.3,3.3-0.8c0.1,1,0.5,2,1.1,2.9
		c4.6,7,11.2,12.1,18.4,14.3c1.7,3.5,3.9,5.5,9.4,8.9c-2.4,2.9-3.1,7.5-1.4,10.8c1.2,2.3,2.4,4.2,3.8,6.3c0.5,0.8,1,1.5,1.5,2.3
		c1.3,2.1,3.6,3.3,6.1,3.3l0.2,0c0.6,0,1.3-0.1,1.9-0.3c-0.3,5-0.4,12.3-0.6,20.8c-0.6-0.3-1.1-0.6-1.7-0.8
		c-1.7-0.8-3.5-1.7-4.2-2.5c-4.7-4.8-10.2-7.3-15-9.6l-1.2-0.5c-1.3-0.6-2.7-0.9-4.2-0.9c-0.3,0-0.6,0-1,0l-0.2,0h-0.4
		c-2.8,0-5.4,1.7-6.6,4.2c-1.2,2.7-0.7,5.8,1.3,8c4.8,5.1,10,8.9,15.2,12.5c4.1,2.9,8,5.7,11.4,9c1.4,1.3,3.2,2,5.1,2
		c0.4,0,0.8,0,1.2-0.1c0,1.8,0,3.5,0,5.2c-0.5-0.1-1.1-0.1-1.6-0.1c-0.5,0-1,0-1.4,0.1c0,0-5.3,1.1-6.7,1.4
		c-0.8,0.2-1.7,0.4-2.4,0.4l-0.4-0.1l-1.9-1.6c-3.3-2.9-6.7-5.9-10-8.9l-0.4-0.3c-2.1-1.9-5.5-5.1-11.4-5.1l-0.4,0
		c-3.7,0.1-6.8,3.1-7,6.8c0,0.4-0.1,0.7-0.1,1.1c-0.1,1.3-0.4,3-0.1,4.8c0.3,1.6,0.6,3,1,4.3c0.3,0.8,0.5,1.6,0.6,2.2
		c1.2,6,4.5,9.2,7.7,10.9c-2.5,1.2-5.3,3.6-7.1,8.7c-0.4,1.3-0.6,2.4-0.6,3.3c-2.8-0.8-5.9-1.6-9.5-1.5c-2.8,0-5.5,0.5-8.2,1.6
		c-2.9,1.1-4.7,3.9-4.7,6.9c0.1,3.1,2,5.8,4.9,6.8l16.8,5.7c0.4,0.4,0.7,0.8,1.1,1.2c2.1,2.4,4.4,5,7.2,7.4l0.4,0.3
		c1.2,7.1,5.9,10.8,9.5,13.5c0.8,0.6,1.5,1.2,2.2,1.7c1.4,1.2,3.1,1.8,4.8,1.8c1.5,0,3.1-0.5,4.4-1.5c5-3.8,6.6-9,4.6-14.3
		c2.7,1.2,5.5,2.4,8.2,3.6l0.9,0.5c1.5,0.8,3.7,1.9,6.6,2c5.3,0.1,10.3,2.3,14.8,4.6c1.1,0.6,2.2,0.8,2.8,1l0.1,0
		c2.4,0.8,4.9,1.5,7.4,2.4c-6.5,2.1-10.5,7.7-10.5,15.2c0,0.6,0.1,1.2,0.3,1.8c-3.1-0.3-5.2-0.6-7-1.8c-1.5-1-3.3-1.5-5.3-1.5
		c-0.8,0-1.5,0.1-2,0.2l-0.4,0c-3,0-5.8,1.9-6.8,4.8c-1,2.9-0.2,6.1,2.2,8.1c4,3.3,8,5.6,12.2,6.9c2.3,0.7,2.7,1.1,3.2,1.7
		c2.4,3.2,6.2,4.7,9,5.2c4.9,0.7,9.9,1.3,14.7,1.8l4.9,0.6c1.4,0.1,3,0.4,4.6,0.3c4,0,7.3-1.2,10-3.6c6.3,0.2,11.3,0.9,15.4,3.2
		c0.7,0.4,1.4,0.8,2,1.3c-0.8,0-1.7,0-2.5,0c-3.6,0-7.3-0.1-11.9-0.4l-0.6,0c-1.5,0-2.9,0.5-4.1,1.3c-0.4,0-0.7-0.1-1.1-0.1l-1.2,0
		c-0.8,0-1.6,0-2.4,0.1c-0.6,0-5.5,0.6-6.6,5.9c-1.7-0.1-3.6-0.8-5.9-1.7c-3.5-1.4-7.6-2.2-11.9-2.3c-0.5,0-1,0-1.5,0
		c-4,0-7.8,0.5-11.3,1.4c-1.4,0.4-2.8,0.5-4.3,0.6c-2.6,0-5.2-0.5-8.1-1.7c-2.4-1-4.5-1.5-6.6-1.9c-4.5-0.6-9-1.3-13.5-1.9
		c-5.8-0.8-11.8-1.6-17.6-2.5c-3.2-0.5-6.3-0.7-9.4-1c-5.6-0.5-10.9-0.9-15.8-2.7c-1.7-0.6-3.4-0.9-4.8-1c0.2-0.5,0.3-1,0.4-1.5
		c0.4-3-0.9-5.9-3.5-7.4c-5.3-3.1-13.2-4.9-21.1-4.9c-3.8,0-9.4,0.5-14.3,2.7c-2.3,1.1-3.9,3.2-4.2,5.7c-2.4-0.3-4.8-0.7-7.2-1
		c0.6-1.2,1-2.6,0.9-3.9c-0.2-2.6-1.6-4.8-3.8-6l-0.2-0.1c-2.3-1.2-5.2-2.7-8.8-2.7c-3.1,0-5.9,1.1-8.5,3.3c-1.7,1.5-2.7,3.7-2.5,6
		l0,0c-2.9-0.4-5.8-0.9-8.8-1.3c-1.7-0.3-3.6-0.5-5.5-0.5c-1.1,0-2.1,0.1-3.1,0.3c-3.3,0.6-6.5,2-9,3.9c-3.1,2.5-4.7,6.2-4.1,9.8
		c0.6,3.7,3.2,6.7,7,8.2c2.3,0.9,4.5,1,6.2,1.1l0.9,0c1.5,0.1,2.9,0.2,4.4,0.3c1.9,0.1,3.8,0.2,5.7,0.4c2.1,0.2,4.3,0.5,6.6,0.9
		l7.2,1.1c6.9,1.1,14.1,2.2,21.1,3.4c2.1,0.4,3.8,0.5,5.4,0.5c2.2,0,4.2-0.3,6.2-1c0.1,0,0.6-0.1,1.4-0.1c0.8,0,1.7,0,2.9,0.2
		c3.9,0.5,7.8,1.6,11.9,2.8c6.1,1.7,12.5,3.5,19.5,3.6c1.2,0,2.5,0.1,3.9,0.3c1.4,0.1,2.8,0.3,4.4,0.3c2,0.1,4,0,5.9,0
		c3.3,0,6.4,0,9.2,0.4c9.5,1.3,19.3,3,28.6,4.6c3,0.5,6,1,9,1.5c3.2,0.5,6.3,1.1,9.1,1.6c-1.3,0.4-2.5,0.9-3.7,1.6
		c-2.1,1.2-3.4,3.3-3.6,5.7c0,0.4,0,0.8,0,1.2c-0.8-2.7-3.1-4.7-5.9-5.1c-0.3,0-0.9-0.3-1.3-0.4c-1.6-0.6-3.7-1.4-6.2-1.3
		c-2.4,0-6.7,0.8-9.9,5.8c-2.1-1.4-4.4-2.6-7.3-2.6c-3.9,0-6.7,2.1-9.3,4.2l-0.8,0.8l-0.3-0.1c-3.3-1.5-6.8-2.3-10.4-2.3
		c-3.2,0-6,0.6-8.5,1.2c-1.3,0.3-2.6,0.5-3.7,0.7c-3.6,0.4-5.5,2.9-6.5,4.1l-0.3,0.3c-1.6,1.6-2.3,3.9-2.1,6.1
		c0.3,2.3,1.7,4.2,3.7,5.3l0.4,0.3c1.3,0.9,3.2,2.2,6,2.2l0,0c1.2,0,2.4-0.3,3.5-0.9c1.8-0.9,4.3-1,7.1-1.1c1.5,0,3.1-0.1,4.7-0.3
		c2.2-0.3,3.9-1.3,5.1-2c0.4-0.3,0.8-0.5,1.4-0.8c0.8-0.4,1.4-0.9,1.9-1.5c2.4,1.6,5,2.4,7.7,2.4l0,0c3.1,0,6.1-1.1,9.1-3.3
		c0.7-0.5,1.3-1.2,1.8-1.9c2.1,1.2,4.3,2.2,7,2.2l0,0c3.3,0,5.7-1.4,9.8-3.7c2.5-1.4,3.9-4.1,3.7-6.9c0.4,1.4,1.2,2.6,2.4,3.6
		c3.3,2.7,7.7,4.1,12.6,4.1c3.7,0,7.5-0.9,11-2.5c2.9,1.4,5.8,2,8.8,2c1.4,0,3-0.2,4.5-0.5c0,3.6,2.4,6.7,4.5,8.2
		c1.7,1.2,3.7,2.1,6.2,2.7c1.1,0.3,2.2,0.5,3.2,0.8c4.8,1.2,9.8,2.4,15.4,2.4c0.8,0,1.6,0,2.4-0.1c-2.5,2.2-4.7,5.5-4.4,10.8
		c0.1,1,0.3,1.9,0.7,2.7l-0.9-0.1c-1.2-0.1-2.4-0.2-3.7-0.2c-5.3,0-10.8,1.5-16.4,4.4c-2.1,1-3.5,3-3.9,5.3
		c-0.4,2.3,0.3,4.6,1.9,6.2c2.6,2.7,5.9,4.1,9.8,4.1c1.2,0,2.2-0.1,3-0.3l0.2,0c3.2-0.4,6.2-0.8,9.2-0.9c7-0.2,14-0.3,19.3-0.3
		l6.8-0.1c1.2,0,2.2,0.1,3.1,0.1c-4.1,1.8-8.7,4.6-11.6,10.2c0,0-0.2,0.1-0.9,0.1l-0.4,0c-5.2-0.4-10.6-0.6-16.4-0.7l-0.6,0
		c-0.5,0-1,0-1.4,0c-6.6,0-10,3.8-11.6,7c-1.6,3.1-0.8,6.9,2,9.1c0.8,0.6,1.5,1.2,2.3,1.7c1.5,1.2,3,2.2,4.2,3.4
		c2.7,2.4,6.4,5.1,11.5,5.1c0.8,0,1.6-0.1,2.4-0.3c-0.5,1.3-0.8,2.7-0.8,4.2c0,2.3,0.3,5.9,1.8,9.1c1.3,2.6,2.7,5.1,4,7.5
		c0.9,1.5,1.7,3,2.5,4.5c1.1,2.1,4,7.7,11.1,7.6c1,0,2.2-0.1,3.4-0.4l0.8-0.2c0.6,2.1,1.6,3.9,3,5.5
		C352.8,580.5,356.5,582,360.5,582z"/>
	<path class="st1" d="M339,218c0-1.8,0-3.6-0.1-5.4l-0.5,0c0,1.8,0,3.6,0,5.4L339,218L339,218z M385.1,208.2c-0.1-0.7-0.4-1.3-0.5-2
		c-0.3,0.1-0.7,0.2-1,0.3c0.3,1.2,0.7,2.4,1.4,4.9C385.1,209.4,385.2,208.8,385.1,208.2L385.1,208.2z M644.4,452.7
		c0.9-1.2,1.5-2.2,2.2-3.1C643.9,449.4,643.1,450.3,644.4,452.7L644.4,452.7z M510.1,200.5c1.8,0,3.5,0,5.3,0l0-0.3
		c-1.8,0-3.6,0-5.3,0L510.1,200.5L510.1,200.5z M543.6,201.2c1.3-0.3,2.7-0.6,4-0.9l-0.1-0.5c-1.4,0-2.8,0-4.1,0
		C543.4,200.3,543.5,200.7,543.6,201.2L543.6,201.2z M405.9,202.5c1.1,0.8,2.2,1.6,3.3,2.4l0.5-0.8c-1.1-0.7-2.2-1.5-3.3-2.2
		L405.9,202.5L405.9,202.5z M304.1,425.1c-1,0-2.1,0-3.2,0.1c-0.1,0-0.1,0.7-0.1,1.1c1.2,0.1,2.3,0.3,3.5,0.4
		C304.2,426.2,304.2,425.6,304.1,425.1L304.1,425.1z M591.3,222.1c0-1.8,0-3.5,0-5.3l-0.4,0c0,1.7,0,3.4,0.1,5.1L591.3,222.1
		L591.3,222.1z M603.5,109.6c-0.5-1.8-1.1-3.6-1.6-5.4c-1.3,2.2-1.7,4.2,0,5.9C602.5,109.9,603,109.8,603.5,109.6L603.5,109.6z
		 M606.1,106.7c0.4,1.5,0.9,3,1.3,4.4c0.4-0.1,0.9-0.2,1.3-0.3c-0.2-1.4-0.5-2.9-0.7-4.3C607.4,106.5,606.7,106.6,606.1,106.7
		L606.1,106.7z M687.2,14.6c0.2-1.3,0.4-2.7,0.5-4c-0.4-0.1-0.9-0.1-1.3-0.2c-0.3,1.3-0.6,2.5-0.9,3.8
		C686.1,14.3,686.7,14.4,687.2,14.6L687.2,14.6z M611.4,109.5c0.3,1.4,0.7,2.7,1,4.1c0.5-0.1,0.9-0.3,1.4-0.4
		c-0.5-1.3-1-2.6-1.4-3.9C612,109.3,611.7,109.4,611.4,109.5L611.4,109.5z M263.6,202.4c-2.3,0-4.6,0.1-6.9,0.1l0,0.4
		c2.3,0,4.6,0,6.9-0.1L263.6,202.4L263.6,202.4z M181.7,295.3c0.9,0.7,1.8,1.5,2.8,2.1l0.8-0.7c-0.6-1-1.3-2-2-2.9
		C182.8,294.3,182.3,294.8,181.7,295.3L181.7,295.3z M282.8,202.3c-2.2,0-4.5,0-6.7,0l0,0.4c2.2,0,4.5,0,6.7,0L282.8,202.3
		L282.8,202.3z M184,287.7c0.7,1,1.4,1.9,2.2,2.8c0.1,0,1.1-0.8,1.7-1.3c-0.8-0.9-1.5-1.9-2.3-2.9C185,286.8,184.5,287.2,184,287.7
		L184,287.7z M353.1,210.2c0.1-2.4,0.3-4.8,0.5-7.2l-0.8,0c0,2.4,0,4.8,0,7.2L353.1,210.2L353.1,210.2z M258.9,217
		c0,2.7,0,5.3,0.1,7.9l0.3,0c0-2.6-0.1-5.3-0.1-7.9L258.9,217L258.9,217z M294.9,209.4c0.1-2.1,0.3-4.2,0.4-6.3c-0.4,0-0.9,0-1.3,0
		c0.1,2.1,0.3,4.2,0.4,6.2L294.9,209.4L294.9,209.4z M566.6,216.1c0-2.3,0-4.6,0-6.9h-0.7c0,2.3,0,4.6,0.1,6.9L566.6,216.1
		L566.6,216.1z M353.3,221.6c0-2.6-0.1-5.1-0.1-7.7l-0.4,0c0,2.6,0,5.1,0.1,7.6L353.3,221.6L353.3,221.6z M442.9,219.3
		c0,2.3,0,4.5,0.1,6.8l0.6,0c0.1-2.2,0.2-4.4,0.3-6.5L442.9,219.3L442.9,219.3z M291.9,540.8c-1.4-2.2-2.7-2.5-4.9-0.2
		C289,542.3,290.4,542.9,291.9,540.8L291.9,540.8z M334.9,209c-0.7-2.4,2-5.9-2.1-7.5C333.6,204.1,334.2,206.5,334.9,209L334.9,209z
		 M536.1,200c-3.1,0-6.1,0-9.2,0.1v0.5c3.1,0,6.1-0.1,9.2-0.1L536.1,200L536.1,200z M389.2,201.7c2.7,0.2,5.4,0.3,8.1,0.5l0-0.9
		c-2.7,0-5.5,0-8.2,0.1L389.2,201.7L389.2,201.7z M288.3,534.8c0.4-0.3,0.7-1.3,0.5-1.6c-1.1-1.7-2.6-1.5-4.3,0
		C285.4,534.6,286.2,536.1,288.3,534.8L288.3,534.8z M596.5,106.1c-2.8,2-1.8,4.1-0.5,6.3C597.3,110.4,598.5,108.5,596.5,106.1
		L596.5,106.1z M513.3,561.8c-1.9-0.5-3.9-2.5-6.2,0.3C510.4,563.3,510.4,563.3,513.3,561.8L513.3,561.8z M644,273.8
		c-3.8,0-6.4,0.1-9.1,0.1C638.4,276.6,638.4,276.7,644,273.8L644,273.8z M120.9,445.1c0.4-0.2,0.6-1.3,0.4-1.6c-1.3-2.1-3-1.9-5.3,0
		C117.4,445.6,118.8,446.5,120.9,445.1L120.9,445.1z M618.4,180.3c4.2,0.8,4.3-1.7,4.8-4.9C620.3,176.4,618.9,177.6,618.4,180.3
		L618.4,180.3z M591.1,210.8c0.4-9.8,0.4-9.8-2.4-11.2C592.3,202.5,589.6,207,591.1,210.8L591.1,210.8z M313.7,209.9
		c1.2-3,2.1-5.3,3.1-7.9c-0.8,0-1.6-0.1-2.8-0.2C314,204.3,313.8,206.8,313.7,209.9L313.7,209.9z M502,207.4
		c0.8-2.1,1.8-4.4,2.9-7.2C501.5,201,501.5,201,502,207.4L502,207.4z M112.2,115.6c0.5,0.1,1.8-0.5,1.9-0.9c0.5-2-0.9-3-2.6-3.5
		c-0.4-0.1-0.8,0-1.5-0.1C109,113.4,109.9,114.8,112.2,115.6L112.2,115.6z M739.4,90.2c2,0.6,4,1.4,6.5,2.2
		C742.9,86.5,742.3,86.4,739.4,90.2L739.4,90.2z M590,109.4c-2.7,1.1-2,3-1.7,4.5c0.1,1,1.2,1.8,2.2,3.3
		C592.7,113.8,590.7,111.8,590,109.4L590,109.4z M303.1,221.8c0-5.2-0.1-10.3-0.1-15.4l-0.5,0c0,5.2,0.1,10.4,0.1,15.7L303.1,221.8
		L303.1,221.8z M317.3,161.6c-0.9-3-3-4.8-5.9-5.9C312.3,158.6,314.3,160.6,317.3,161.6L317.3,161.6z M295.3,212.9
		c-1.8,4.5,0.6,9.5-2.4,13.9c0.9,0.5,1.8,0.9,2.6,1.3C295.4,223,295.4,218,295.3,212.9L295.3,212.9z M126.8,399.4
		c-3.1-1.7-6-3.3-9.4-0.4C121.8,401.9,123.2,401.9,126.8,399.4L126.8,399.4z M705.8,38.2c0.9,3.6,3.8,1.6,5.8,2c0.9,0.2,2.3-1.7,4-3
		c-4.1-1.1-7.2-1-9.9,1.2L705.8,38.2L705.8,38.2z M213.3,456.6c3.3,2.5,6.2,1.8,9.1-0.4C218.5,453.2,217.4,453.3,213.3,456.6
		L213.3,456.6z M552.4,199.9v0.8c2.1,0,4.2,0,6.9-0.1c0,4.6,0.1,8.7,0.1,12.8l0.8,0c0-4.4-0.1-8.8-0.1-13.6
		C557,199.9,554.7,199.9,552.4,199.9L552.4,199.9z M146.2,83.8c-1.5-3-3.2-5.4-7-7C139.8,82.2,141.3,83.6,146.2,83.8L146.2,83.8z
		 M660.6,38.7c1.4-0.6,2.7-1.3,4-1.9c1.4-0.6,2.9-1.3,2.3-3.2c-0.7-2.2-2.6-1.8-4.2-1.4c-0.6,0.1-1,0.6-2,1.2c0,1.7,0,3.6,0,5.5
		L660.6,38.7L660.6,38.7z M177.2,182.8c1.1,3.5,3.2,5.2,7.4,5.4C182.9,182.9,182.4,182.5,177.2,182.8L177.2,182.8z M372.7,224.1
		c-0.1-7.2-0.1-14.4-0.2-21.6l-0.9,0c0.1,7.1,0.1,14.3,0.2,21.3L372.7,224.1L372.7,224.1z M638.7,269.8c0.1,0.3,0.1,0.6,0.2,1
		c-0.7,0.2-1.4,0.8-2.1,0.6c-2.4-0.5-4.4,0.1-6.3,1.9c-1.8,1.7-2,1.4-6,0.4c1.1-2.9,5.8,0.8,6.2-3.3
		C633.4,270.1,636,270,638.7,269.8L638.7,269.8z M666.3,18.1c1.4-2.2,1.7-4.7-0.6-6.8c-2.7,2.2-2.7,2.2-4.4,7.5
		C663.3,20.4,665.2,19.9,666.3,18.1L666.3,18.1z M325,237.9c-4-0.8-8-1.5-12.6-2.4c3.4,6.1,8.1,4.2,12.4,3.8
		C324.8,238.8,324.9,238.3,325,237.9L325,237.9z M431,202.2c0.1,8.1,0.1,16.3,0.2,24.4l0.6,0c-0.1-8.1-0.2-16.2-0.2-24.4L431,202.2
		L431,202.2z M104.2,267.9c0.7,0.5,2.2,0.7,2.9,0.3c0.7-0.4,1.2-1.8,1.1-2.6c-0.3-2.9-2-3.9-6-3.7
		C101.5,264.3,102.1,266.4,104.2,267.9L104.2,267.9z M418.9,205.1c1.9,0,2.7,0,4.1,0c0.1,6.1,0.1,12.3,0.2,18.5c0.3,0,0.6,0,1,0
		c-0.1-7-0.1-14-0.2-22.1C422.4,202.5,421.1,203.5,418.9,205.1L418.9,205.1z M231.3,453.5c4.3,2.5,4.3,2.5,10.4-1
		C238.2,452,234.4,448.3,231.3,453.5L231.3,453.5z M196.2,191.2c-0.8-0.3-2.1,0.5-3.4,0.9c1.7,4.8,5.4,5.1,9.6,6.5
		C201.1,194.7,199.2,192.3,196.2,191.2L196.2,191.2z M584.5,220.8c-0.1-7-0.1-14-0.2-21.2c-2.9,0-5.6,0.1-8.2,0.1v0.6
		c2.4,0.1,4.8,0.3,7.6,0.4c0.1,7,0.1,13.6,0.2,20.2L584.5,220.8L584.5,220.8z M591.9,72.2c-1-1.6-2.2-3.1-2.9-4.8
		c-0.6-1.6-0.6-3.5-0.9-5.7c-4.4,6.3,0.8,10.6,1.5,16.2C591.8,75.9,593.4,74.7,591.9,72.2L591.9,72.2z M316.1,184.7
		c0,0.4,0,0.9,0.1,1.2c0.8,1.5,1.6,3,2.4,4.4c2.1,3.3,2.1,3.3,7.1,2.3C322.4,186.9,320.6,185.4,316.1,184.7L316.1,184.7z
		 M643.7,441.9c1,0.9,3.5,1.1,4.6,0.4c1-0.7,1.6-3,1.4-4.4c-0.1-0.9-2.1-1.9-3.4-2c-2-0.3-4.1,0.1-6.8,0.3
		C641,438.3,642,440.5,643.7,441.9L643.7,441.9z M229.3,215.8c-4-3.9-7.1-7.1-10.6-10c-1.3-1-3.3-1.1-5.7-1.9
		C217.1,210,223.1,214.4,229.3,215.8L229.3,215.8z M273.9,449.4c-5.9,0.7-11.8-3.1-17.9,0.4C260,453.1,267.5,453.1,273.9,449.4
		L273.9,449.4z M614.4,201.4c0.9-1.4,1.8-2.7,2.6-4.1l0.2,0.1c-1,0-2,0-2.6,0c-2.7-4.4,4-8.3-0.3-12.4c-4.2,4.3-4.5,9.4-3.5,14.5
		c1.5,0.6,2.6,1.2,3.8,1.7L614.4,201.4L614.4,201.4z M258,534c2.2-1.1,3.2-3.4,2.4-5.3c-0.8-1.9-3.3-2.8-5.5-1.7
		c-1.5,0.9-2.8,2.3-4.6,3.8C254.4,535,255.4,535.3,258,534L258,534z M243.9,235.8c-0.7-0.6-2.6-0.8-3.3-0.3
		c-0.7,0.5-1.2,2.4-0.8,3.2c1.3,2.6,3.1,5,4.9,8c1.3-2,2.4-3.5,3.6-5.3C246.8,239.4,245.5,237.4,243.9,235.8L243.9,235.8z
		 M161.9,270.2c1.4,0.7,3.6,0.4,5.2-0.1c0.7-0.3,1.6-2.6,1.3-3.1c-1-1.4-2.5-3-4-3.4c-1.6-0.4-3.5,0.5-6.9,1.2
		C159.6,267.5,160.4,269.5,161.9,270.2L161.9,270.2z M567.5,538.8c-1.6,0.3-3.2,0.5-4.8,0.8c-0.1,2.8-0.2,5.1-0.4,8.6
		c5.6-0.6,9.4-3.2,13.9-6.8c-2.8,0.5-4.6,1.3-6.4,1.2c-2.1-0.2-3.6-1.4-2.5-4L567.5,538.8L567.5,538.8z M153.5,170.8
		c4.4,0.6,7.1,3.5,10.4,5.8c1.2,0.9,2.9,1.1,5.5,2.1c-4.1-8-11.6-8.9-17-13.6C150.3,168.4,151.1,170.5,153.5,170.8L153.5,170.8z
		 M185.8,458.4c-0.9,0.1-1.6,1.5-2.4,2.3c1,0.5,2.4,1.8,3,1.5c4.6-2.3,9.5-1.6,14.4-2.1c0.9-0.1,1.8-0.9,3.7-2
		C197.3,454.9,191.6,457.7,185.8,458.4L185.8,458.4z M126.6,289.6c-3.2-1.5-7.4-0.1-9.8,3.2c3,3.6,6.5,5.4,11.8,3.7
		C129.5,293.5,129.6,291,126.6,289.6L126.6,289.6z M156.1,505.7c1.1-3,2.1-5.9,3.1-8.9c0.2-0.6,0.5-1.2,0.6-1.8
		c0.4-2.3-0.6-3.7-2.8-4.2c-2-0.5-3.3,0.6-3.7,2.5c-0.5,2.5-1.2,5-1.1,7.6c0.1,2.1-0.3,4.8,2.4,6.2
		C155.2,506.5,156,506.2,156.1,505.7L156.1,505.7z M229.3,359.6c-2.4-3.6-5.4-4.6-10.5-3.6c0.7,5.8,5.5,8,9.3,11.3
		C231.7,364.5,231,362.1,229.3,359.6L229.3,359.6z M370.2,239.8c-0.8-4.8-4.8-5.8-7.6-8.2c-2.7,1.7-5.2,3.3-9.2,5.8
		C359.7,240.8,364.8,240.7,370.2,239.8L370.2,239.8z M180.8,119.3c-6.5-6.9-11.6-14.3-21.1-18.7
		C162.9,108.6,174.4,118.9,180.8,119.3L180.8,119.3z M745.1,226.2c-1.7,0.3-4.1,1.3-4.6,2.6c-1,2.5-1,5.5-1.5,9
		c5.8-2.5,12.3-2.7,12.4-11C748.9,226.6,746.9,225.9,745.1,226.2L745.1,226.2z M176.4,406.6c-7.3-4.2-21.1-5.2-28.7-1.8
		C157.6,407,166.4,409,176.4,406.6L176.4,406.6z M525.1,237.7c0.4,2.8,2.1,4.2,4.9,3.8c1.8-0.3,3.7-0.8,5.2-1.8c1-0.7,1.1-1,2.3-0.2
		c2.1,1.2,2.2,0.9,3-4.1c-5.3-0.1-10.6-0.5-13.7-5.6C523.8,232.1,524.7,235,525.1,237.7L525.1,237.7z M577.8,71.6
		c6,4.6,5.7,11.7-0.9,20.4c-1.9-3.9-3.7-7.6-5.8-11.8C577.2,80.3,577.1,75.7,577.8,71.6L577.8,71.6z M300,238.4
		c-4.3-1.4-7.3-2.3-10.5-3.4c-4.6,3.1-10.2,3.2-15.3,2.3c-6.5-1.3-12.6,0.7-18.9,1.4C269.8,239.9,284.2,241.4,300,238.4L300,238.4z
		 M556.1,103.6c0.6,4.1,3,7.1,7.8,9.1c-3.1,0.6-4.9,1-7.6,1.5c1.8,2.1,3,3.6,4.2,5c4-4.2,4-4.2,6.7-11.6c-5.3-2.1-3.9-8.1-6.7-11.9
		C558.9,98.6,557.5,101.1,556.1,103.6L556.1,103.6z M235,276.3c-4.1-4.1-9.1-6.3-14.1-8.6c-0.7-0.3-1.7-0.1-2.6-0.1
		c7.8,8.4,18,13.2,26.3,21.2c0-2.6,0-4.5-0.1-6.9C241.1,280,237.4,278.7,235,276.3L235,276.3z M541.7,132.4
		c-1.5,1.7-2.7,3.1-3.9,4.5c2.4,4.7,6.6,6,10.8,8.4c1.7-5.4,5.6-9.2,4.6-15.9C549.3,132.3,546.1,135.4,541.7,132.4L541.7,132.4z
		 M528.9,173.1c-0.9,2-1.9,4.1-2.9,6.2c1.5,0.8,2.8,1.5,4.5,2.4c4-4.1,5.3-10,7.9-15.2c0.6-1.2,0.6-2.7,0.9-4.2
		c-1.9,0.8-3.4,2.1-4.8,1.9c-4.2-0.7-6.7,2-10.1,4.3C526,170.2,527.4,171.6,528.9,173.1L528.9,173.1z M722,277.5
		c0.2,6.9,2.9,8.3,9.2,4.8c0.9-0.5,1.9-1,2.9-1c4,0.1,5.4-2.3,6.5-5.8c-6.2-2.2-12.1-3-18.5-0.8C722,276.3,722,276.9,722,277.5
		L722,277.5z M600.3,71.8c-0.5,0-0.9,0.1-1.4,0.1c-1.8-5.3-3.5-10.6-5.6-16.9c1.9,0.7,2.8,1,4.1,1.5c-0.1-4.5-1.6-9.4,3.6-12.1
		c4.1,3.7,4.9,8.3,1.8,12.5c-1.6,2.1-2.5,4.1-1.9,7C601.4,66.5,600.5,69.2,600.3,71.8L600.3,71.8z M656.1,453.1
		c-1.3,2.9-2.8,5.8-4.2,8.6c-6.2,5.8-11.6,0.6-17.3-2.1c2.8,0.2,5.6,0.4,8.9,0.6c3.3-4.9,6.9-10.1,10.4-15.3
		C657.4,448.2,657.8,449.2,656.1,453.1L656.1,453.1z M355.4,562.3c-0.5,1.4-1.3,2.8-1.4,4.2c-0.6,5,2.5,8.7,7.4,8.1
		c2.3-0.3,4.7-2,6.4-3.7c3.6-3.6,1.9-8.9-3.2-9.5c-3.1-0.4-6.3,0.7-9.4,1.1L355.4,562.3L355.4,562.3z M705.6,38.5l0.2-0.2
		c-1.3,2.8-2.7,5.6-4.1,8.6c-9.9,3-10.8,2.7-14.6-5c1-1.6,2-3.4,3.1-5.2c1.9,0.6,3.7,1.8,5.2,1.6c1.4-0.3,2.6-1.9,3.7-3.2
		c1.8-2.1,3.4-4.2,5.7-7.1C705.9,32,705.4,35.3,705.6,38.5L705.6,38.5z M322.4,174c-1.3-2.2-2.3-4.5-3.9-7.6
		c4.7,0.6,6.4,3.6,8.5,5.8c2.8,3.2,5.3,6.8,8.1,9.9c3.4,3.8,7,7.3,10.4,10.9c-4.2,2.6-9.4,2.3-12.7-2.2
		C329,185.5,325.8,179.7,322.4,174L322.4,174z M729.4,251.7c1-1.7,1.8-3.1,2.6-4.3c-1.4-2.8-3.5-2.7-5.7-2c-4.2,1.4-8.4,3-12.5,4.7
		c-1,0.4-1.7,1.5-3.5,3.3c5.5,0.9,7.3,7.2,13.4,5.3c0.8-0.3,2.3,1.5,3.3,2.5c0.6,0.6,1,1.5,1.8,2.8c2-3.2,0.3-8.1,5.8-8.8
		C732.8,254,731.2,252.9,729.4,251.7L729.4,251.7z M268,185.3c-4.4-6.5-8.7-13.1-14.6-18.4c-1.3-1.2-1.8-3.3-2.8-4.9
		c-0.7-1-1.7-1.9-2.6-2.8c-0.7,1.1-0.6,1.6-0.5,2.2c1.2,6.4,7.6,10.8,7,18.1c-0.1,1,1.2,2.3,2,3.2c4.1,4.2,8.4,8.4,12.3,12.4
		c3-0.6,5.3-1,7-1.4C273.1,190.8,270.1,188.4,268,185.3L268,185.3z M457.7,374.1c-11.4-6.7-11.4-6.7-15.5-5.8
		c-0.5,2.4-0.5,4.9-1.6,6.5c-1.2,1.8-3.6,2.8-5.3,4.1c2.3,4.4,2.3,4.6,4.8,4.7c5.7,0.1,11.4,0,17.7-0.1
		C457.7,379.9,457.7,377,457.7,374.1L457.7,374.1z M248.8,95.1c-5.2-6.6-11.3-12.8-14.1-21.7c4.2,2.1,6.6,5,9,8
		c10.5,13.2,18.9,28,30.6,40.2c5,5.2,8.5,11.8,12.7,17.6c3.3,4.5,6.6,9,10.1,13.2c4.2,4.8,8.8,9.2,10.2,15.9
		c0.4,1.9,2.2,3.6,3.4,5.4c0.8,1.2,1.6,2.3,2,3.9c-3.8-0.9-6.7-3.1-9-6.1c-8.9-11.2-17.8-22.4-26.7-33.5c-0.9-1.2-2.3-1.9-3.2-3.1
		c-2.1-2.7-4.5-5.3-5.9-8.3C263,115.2,256.5,104.9,248.8,95.1L248.8,95.1z M403.8,392.4c-10.2,0.1-19.9,0.2-30.2,0.3
		c-0.1,2.3-0.2,4.4-0.3,6.5c0,2.3,0,4.6,0,7.1c2.3,0.4,4.1,0.6,6.5,1c-0.1,25.2-0.3,50.1-0.4,76c6.4-3,12.1-5.7,17.3-9.1
		c0.4-22.3,0.7-44.3,1-66.3c2.3-0.3,3.9-0.5,6.1-0.8C403.9,401.9,403.9,397.3,403.8,392.4L403.8,392.4z M250.5,220.1
		c-0.3,3.2-1.9,6.4-3.1,10c-14.6-8.4-14.6-8.4-16.7-13.9c0.7-0.4,1.4-0.8,2.1-1.2c4.3-2.9,5.1-6.9,1.9-10.9
		c-4.7-5.8-10-11.2-14.5-17.1c-7.2-9.3-16.6-16.5-23.4-26.1c-2.2-3-5.6-5.1-8.5-7.6c-1.8-1.5-3.6-3-5.3-4.6
		c-6.9-6.6-14.5-12.6-19.4-21.2c-2.4-4.2-5.9-7.9-9.2-11.6c-1.3-1.5-3.5-2.2-5.3-3.3c-1.7-1.1-4.1-1.9-5.1-3.5
		c-4.6-7.7-11.7-13-17.5-19.6c-2.8-3.2-5.7-6.4-8.7-9.4c-2.1-2.1-4.5-3.9-6.7-5.9c-1.1-1-2.4-1.9-3.1-3.1c-1.4-2.3,0.1-5.1,2.7-5.1
		c2,0,4.2,0.6,5.9,1.7c2.3,1.5,4.2,3.7,6.1,5.7c6.2,6.5,12.3,13,18.5,19.5c7,7.5,13.9,15.1,20.9,22.6c5.4,5.8,10.9,11.4,16.3,17.2
		c5.8,6.3,11.5,12.6,17.3,18.9c7.6,8.1,15.2,16.1,22.7,24.3c1.9,2,3.5,4.3,5,6.7c3.1,4.8,6.8,8.6,12.2,10.9c3.5,1.5,6.6,4,9.5,6.5
		c1.4,1.3,1.5,4,2.8,5.5C251.8,210,250.8,215.2,250.5,220.1L250.5,220.1z M739.5,168.2c-0.6,3.2-2.2,5-5.7,4.5
		c-1-0.1-2.2,0.1-3.1,0.6c-2.4,1.4-4.7,1.1-7.3,0.2c-10.7-3.7-21.6-5.9-33-6.1c-2.6,0-4.2-2.5-3.8-5.5c0.3-2.3,1-4.6,1.3-6.9
		c0.1-1-0.3-2.1-0.5-4c-1.8,1.9-2.8,3.3-4.1,4.3c-4.2,3.2-8,7.7-14,4.9c-3.7,11.3-0.3,20.6,5.7,29.7c1-1.2,1.9-2.3,3-3.3
		c1.1-0.9,2.3-2.2,3.6-2.3c9.5-1.2,19-0.6,28.2,2.2c2.2,0.7,4.7,1.2,6.5,2.5c2.9,2.2,4.4-1.5,7.2-1.2c-1,5.6,1.4,9.6,4.6,13.6
		c2.4,2.9,4.5,6.2,6.4,9.5c2,3.3,3.7,6.8,6.1,11.2c4.2-5.5,7.8-10.1,10.7-13.9c-0.5-2.7-1.2-4.4-1-6c0.3-3.5-0.8-6.3-3-8.8
		c-1.4-1.5-3.1-2.8-4.7-4.3c3.3-5.7,0-12.7,4-18.1c4.2,2,5.2,7.2,9.8,8c2.8-3.2,1.8-6.7,1.8-10.1c0-4.5-0.8-5.3-5.2-4.9
		c-3.6,0.3-7.1,0.7-11.7,1.2C740.8,166,739.8,167,739.5,168.2L739.5,168.2z M717.1,105.5c1.2-1.1,2.5-2,4.7-3.7
		c0.6,6.3,1.1,11.4,1.7,16.9c4.8,0.4,9,1.4,12.4,4.6c-2.4,4.1-4.7,8.1-7.5,12.9c6.3-1.8,8.5-8.1,14.3-9.7c1.3,1.5,2.7,3.1,4.2,4.9
		c2.9-0.5,5.9-1.1,9-1.7c1.7,11-0.8,15.3-10,16.7c-0.1,3.5-0.3,7-0.3,10.5c0,2.7-0.9,4-3.9,3.8c-0.5-1.6-0.8-3.3-1.5-4.8
		c-1.2-2.6-2-5.4-5.5-6.4c-1.6-0.5-3.1-2.4-4-4.1c-4-7.3-11.7-9.6-18.1-13.6c-1.8-1.1-6-0.3-9.2,0.7c-0.9,0.3-2.3,0.1-2.8-0.4
		c-1.1-0.9-1.7-2.3-2.5-3.5c-8.1-0.7-31.2,5.1-36.6,9.1c0.3,2.2,1.9,1.7,3.4,1.6c6.1-0.7,12.3-1.4,18.4-2.1c1.4-0.1,2.8,0.2,5.4,0.5
		c-4.2,3.1-7.5,5.6-11.2,8.5c-1.2-0.3-2.9-0.8-5.1-1.3c0,1.5,0,2.7,0,4.5c-1.4-0.6-2.6-1-3.9-1.5c-0.3,0.4-0.9,1.2-1.7,2.2
		c-0.4-0.5-1.1-0.9-1.2-1.4c-0.2-3.1-1.1-5.8-4.7-7.4c-2.1,3.9-3.5,7.3,0.7,10.9c-3.1,1.1-4.9,1-5.3-2.1c0-0.4,0-0.9,0-1.3
		c0.8-5.8-1.5-10.1-5.7-14.1c-2.3-2.2-3.4-5.6-5.8-9.8c5.5,1.8,9.4,3.1,13.5,4.5c2.4-0.8,3.9-2.5,4.5-5.4c1-5.2,4-8.5,9.5-9.7
		c6.7-1.4,13.3-3,20.2-2.6c2.1,0.1,4.2,0,6.6,0c0.5-2,0.9-3.6,1.3-5.5c1.2,0.4,2.3,0.6,3.1,1.1C710.3,111,711.7,110.8,717.1,105.5
		L717.1,105.5z M444.8,346.6c10.2-0.1,19.7-0.2,29.5-0.2c-0.1-6-0.1-11.7-0.2-17.5c-3.2-0.2-6.1-0.4-8.8-0.6
		c-0.1-6.9-0.1-13.3-0.2-20c3.5-0.2,6.6-0.4,9.8-0.6c0-6.2-0.1-11.7-0.1-17.6c-3.3-0.3-6.4-0.5-9.4-0.8c-0.1-7.4-0.1-14.4-0.2-21.6
		c3.4-0.3,6.3-0.5,9.5-0.8c0.4-6,1-11.8-0.3-17.9c-9.8,0.1-19.1,0.1-29.1,0.3C444.8,282.1,444,314.3,444.8,346.6L444.8,346.6z
		 M593.2,268.2c0-6.1-0.1-11.7-0.1-17.9c-9.9,0.1-19.4,0.2-29.4,0.3c-0.3,32.5-1.4,64.8-0.4,97.6c10.3-0.1,19.8,0.1,29.7-0.1
		c-0.5-6.4,0.8-12.2-0.7-17.9c-3-0.2-5.7-0.4-8.5-0.6c0-6.9-0.1-13.4-0.1-19.9c3.5-0.3,6.3-0.4,9.8-0.7c-0.3-6.3,0.8-12.2-0.6-18.1
		c-3.3-0.2-6.2-0.4-9.2-0.6c0-7.2-0.1-14-0.2-21.4C587.1,268.5,590,268.3,593.2,268.2L593.2,268.2z M409.5,393.3
		c-0.3,25.8-0.5,51.3-0.8,77.3c12.7,0.3,24.8,0.6,37.3,0.9c0.3-5.3,0.4-9.9,0.7-15.3c-7.6,0.1-14.3,0.1-21.6,0.2
		c-0.3-16.7,0-32.5,1-48.6c1.8,0.1,3,0.2,4.9,0.3c-0.2,14.5-0.5,28.8-0.8,44.2c4.8-3.1,8.4-5.6,12.3-7.7c3.2-1.8,4.3-4,4.3-7.7
		c-0.1-12.9,0.3-25.7,0.4-38.5c0-1.5,0-2.9,0-5.3C434.2,393,422.1,393.2,409.5,393.3L409.5,393.3z M457.2,420.3
		c-3.6,1.7-5,4.1-4.9,8c0.1,13.7,0,27.4,0,41.2c0,0.5,0.4,1.1,0.9,2.3c11.9-0.1,24-0.2,36.2-0.3c1.3-25.8,1.1-51.4,1-77.3
		c-12.8-0.3-24.9-0.5-37.2-0.8c0,5.3,0.1,9.9,0.1,14.9c7.1,0.1,13.8,0.3,20.8,0.4c-0.1,16.4-0.3,32.2-0.4,48.4
		c-2.2-0.3-3.5-0.4-5-0.6c-0.1-14-0.3-27.7-0.4-42.1C464.2,416.5,460.8,418.7,457.2,420.3L457.2,420.3z M273.3,327.6
		c0.3-6.9-0.4-13.4,0.4-19.9c3.6-0.3,6.4-0.5,9.6-0.7c-0.1-6.1-0.1-11.8-0.2-17.6c-3.3-0.2-6.2-0.4-9.1-0.6
		c-0.1-7.3-0.1-14.2-0.2-21.3c3.5-0.3,6.4-0.5,9.8-0.7c-0.1-5.9-0.1-11.6-0.2-17.8c-9.9-0.2-19.6-1.2-29.2-0.2
		c-1.4,9.4-1.6,92.5-0.1,97.6c4.8,0,9.7,0,14.6-0.1c4.8-0.1,9.7,1.3,14.6-0.6c0-5.7-0.1-11.3-0.1-17.5
		C279.7,328,276.8,327.8,273.3,327.6L273.3,327.6z M352.3,363.5c7.7-4.1,14.6-7.8,22.1-11.8c-0.1-9.4-0.3-18.8-0.2-28.2
		c0-9.2,0.3-18.4,0.4-27.6c0.1-9.4,0.1-18.7,0.2-28c3.2-0.3,5.7-0.6,8.3-0.9c-0.1-6.1-0.1-11.8-0.2-17.4c-6.2-1.2-32.9-1.2-38,0
		c0,5.6,0.1,11.3,0.1,17c2.7,0.5,4.9,0.9,7.8,1.4C352.8,299.6,352.5,331.2,352.3,363.5L352.3,363.5z M554.5,395
		c-20-0.3-39.3-0.6-59.2-0.9c-0.4,26.4-0.7,52-1,77.9c5.8-0.1,10.8-0.1,16.2-0.1c0.3-21,0.5-41.5,0.8-62.2c1.8,0,3.1,0,4.6,0
		c0.2,21,0.4,41.7,0.5,62.7c5.2,0,10.1-0.1,15.5-0.1c0.4-20.9,0.7-41.6,1.1-62.4c1.8,0,3.1,0,5.2,0c-0.3,21.1-0.5,41.8-0.8,62.9
		c5.4-0.1,10.3-0.1,16.4-0.1C553.3,446.9,554.3,421.2,554.5,395L554.5,395z M337.5,339.4c0-11.4-0.2-22.7,0.1-34.1
		c0.1-5.3-0.4-9.7-5.5-12.4c-0.3-0.1-0.3-0.8-0.4-1.4c5.2-2.3,6.3-6.5,6.1-11.9c-0.4-8.1,0.1-16.3,0.3-24.4c0-2.1,0-4.2-0.1-6.7
		c-7,0.2-13.4-0.5-20.2,0.6c0,2.5,0.1,4.6,0.1,6.7c0,6.4-0.1,12.8,0,19.3c0,3.1-0.9,5.4-4.3,6.2c-0.8-0.8-2.2-1.6-2.2-2.4
		c-0.2-10-0.3-19.9-0.4-29.8c-5.8-1.5-14.9-1.5-20.5,0c0.1,9,0.2,18.2,0.2,27.5c0,3-1,6.3,0,8.9c0.9,2.6,3.7,4.4,5.8,6.7
		c-1.2,1-2.2,2.2-3.5,2.9c-2.3,1.4-2.8,3.4-2.8,6c0.1,14.1,0.1,28.3,0.1,42.5c0,0.6,0.3,1.2,0.6,2.1c6.1,0,12.2-0.1,18.7-0.2
		c0.1-1.3,0.3-2.7,0.4-4.2c0.2-10,0.5-20.1,0.5-30.2c0-3,0.4-5.5,3.6-6.6c3,3.2,3.1,3.2,3.1,6.5c0,7.1,0,14.1,0,21.2
		c0,4.4,0.1,8.9,0.1,13.8c6.6-0.1,12.8-0.1,19.8-0.2C337.3,343.6,337.4,341.5,337.5,339.4L337.5,339.4z M418,286.8
		c-0.1-6.5-0.1-12.4-0.2-18.6c-2.3,0-4.3,0-6.7,0c0.1,7.2,0.1,14,0.2,21.4C413.6,288.6,415.5,287.8,418,286.8L418,286.8z
		 M410.1,361.2c-6.6,3.7-12.7,7.3-19.8,11.4c0.3-41.6,0.6-81.9,0.9-122.5c15.9-0.1,31.2-0.3,47.2-0.4c-0.2,15.5-0.4,30.4-0.5,45.4
		c-3.6,2.2-7,4.2-10.8,6.5c2.9,3.8,7.6,4.4,10.5,7.7c0.1,12.5,0.2,25.1,0.3,38.2c-6.5,3.2-13,6.4-19.9,9.8
		c-0.1-13.5-0.3-26.6-0.4-40.1c-2-1-4-2.1-6.5-3.4C410.8,329.8,410.4,345.2,410.1,361.2L410.1,361.2z M482.1,372.3
		c6.5-3.8,12.9-7.5,19-11c0.3-18.9,0.7-37.1,0.9-55.2c0.1-11.8,0-23.6,0-35.4c0-0.8,0.4-1.6,0.7-2.7c2,0.2,3.8,0.3,5.8,0.5
		c0.1,6.3,0.1,12.1,0.2,17.8c0,6,0,12,0,18c0,5.8,0,11.6,0,17.3c0,6-0.2,12,0,18c0.2,5.6-1.2,11.3,0.4,17.8c6.8-3.3,13-6.4,19.2-9.5
		c0.3-26.5,0.6-52.6,0.9-79.1c2.4,0,4.4,0,6.7-0.1c-0.1,29.7-0.2,59-0.3,89c6.9-3.4,13.3-6.5,19.4-9.6c1.3-13.7,1.4-91.8,0.2-97.9
		c-24-1.4-48.2-0.2-72.6-0.7C481.1,271,480.7,366.6,482.1,372.3L482.1,372.3z M303.2,431.4c1.7,0,3.3-0.3,5.5-0.5
		c0.3-2.6,0.5-4.5,0.7-7c9.4,0.7,18.5,0.8,28-0.9c-2.3-6.2-6.2-10.7-11.5-13.6c-6.1-3.4-13-4-19.9-4.2c-1,0-2.4,0.2-3,0.9
		c-3,3.6-6.9,2.8-10.7,2.3c-6.2-0.7-12.3-1.3-18.5-2.3c-1.5-0.2-3.3-1.2-4.2-2.3c-1.8-2.4-4.1-3.4-6.9-4.3c-3.4-1-6.5-2.9-9.6-5.5
		c1.3,0,2.8-0.5,3.7,0c4,2.6,8.4,2.9,12.9,3.2c2.5,0.1,5,0.8,7.5,1.5c3.3,0.9,6.6,1.9,9.7,3.2c5.5,2.2,10.2-0.1,16-2.2
		c-6.3-4.4-12.3-6.7-18.9-7.8c-3.5-0.6-6.7-1.5-9.2-4c0-5.4,3-8.3,8-8.7c4.2-0.3,3.8-3.8,5-6.9c2.3,1.7,4,3.2,6,4.2
		c0.9,0.5,2.4,0.3,3.3-0.2c0.4-0.2,0.5-2.1,0.1-2.8c-1-1.8-2.3-3.6-3.8-5.1c-2.7-2.7-3-2.6-6.5-0.5c-5-1.6-9.6-3.1-14.2-4.5
		c-0.6-0.2-1.3-0.3-1.8-0.6c-5.7-2.8-11.4-5.2-18-5.4c-1.6,0-3.2-1.2-4.8-1.9c-7.2-3.2-14.4-6.4-22-9.8c-0.8,1.4-1.3,2.7-2,4
		c-2.3,4-4.8,4.7-8.4,1.7c-3.4-2.8-6.1-6.4-8.8-9.3c-6-2.1-11.8-4-18.6-6.3c7.9-3,13.8,1.2,20.6,2.1c0.5-2.1,1.1-4.1,1.5-6.1
		c0.3-1.2,0-2.6,0.4-3.8c1.9-5.5,5.7-6.5,9.3-1.9c3.7,4.8,8.6,6.9,14.2,7.9c3.2,0.6,4.9-0.3,6.3-3.1c1.4-2.9,0.9-5.5-1.8-7.3
		c-1.4-0.9-3.1-1.5-4.7-2.1c-4.8-1.9-9.5-3.9-13.2-7.6c-1.3-1.3-3.1-2.3-4.9-2.8c-3.3-1-4.9-3.2-5.5-6.4c-0.4-2.1-1.2-4.1-1.5-6.3
		c-0.2-1.3,0.1-2.7,0.2-4.3c3.4-0.1,5.2,1.7,7.1,3.5c3.9,3.6,8,7.1,12,10.6c2.7,2.4,5.9,2,9.1,1.4c2-0.4,4-0.9,6.7-1.4
		c1.3,13-0.6,25,0,38.3c-4-2.4-7.1-3.7-9.2-5.8c-2.7-2.7-5.5-4.6-9.2-5.5c-1.9-0.5-3.7-1.7-6.4-3c1.7,3.8,3.2,7.1,4.6,10.2
		c5.6,1.3,10.9,2.6,16.3,3.9c2.4,0.6,4,1.8,5.5,4c2.8,4.2,7,5.9,12.1,5c1.9-0.4,3.8-0.4,5.8-0.4c14.1-0.1,28.2-0.3,42.3-0.3
		c8.3,0,16.7,0.5,25,0.4c4,0,7.9-0.8,12.4-1.3c0,2.1-0.1,4.6,0.1,7.2c0.2,2.1,0.4,4.3,1.2,6.3c1.7,4.2,6.7,6,11.4,3.7
		c8.6-4.2,17-8.8,25.6-13.4c0,2.9,0.1,6.3,0.1,9.6c0,1.7-0.1,3.5,0.1,5.1c0.6,6.9,5,10.1,11.6,7.7c4-1.4,7.4-1.7,10.9,0.5
		c0.7,0.4,1.1,1.2,1.8,1.9c-6.3,0.1-12.3,0.1-18.2,0.1c-4.1,0-8.2-0.4-12.2-0.3c-7.8,0.4-11.5,4.4-11.7,12.3c-0.1,3.2-0.1,6.4,0,9.6
		c0.1,6.3,0.9,7.7,6.6,12.1c-0.3,21.8-0.6,43.8-0.9,66.2c-3.5-0.6-5.9-2.6-8-4.9c-5.4-6.2-12.6-6.7-20-6.3c-2.1,0.1-3.5,1.2-3.7,3.6
		c-0.1,1.7-0.6,3.3-1.2,4.9c-2.3,5.9-5,7.1-11,4.7c-0.9-0.4-1.8-1.1-2.8-1.7c-0.4-6.8,7-6,9.7-10c-3-5.1-7.3-8.1-13.1-7.6
		c-6.7,0.5-12.7-1.5-18.9-2.9c-1.3-0.3-2.6-0.7-3.6-1.5c-0.8-0.5-1.7-1.9-1.5-2.4c0.5-1,1.6-1.9,2.7-2.2c0.9-0.3,2.1,0,3.1,0.3
		c3.9,1.1,8.1,1.8,11.6,3.6c6.4,3.2,13.3,3,20,3.7c3.4,0.4,6.3-1.2,8.6-3.5c1.4-1.4,1.7-3.2,0-4.4c-2.1-1.4-4.3-3.2-6.7-3.5
		c-6.5-0.7-12.9-2.6-19.7-1.5c-3.9,0.6-8.1-0.2-12.1-0.8c-5.4-0.8-10.7-0.3-15.9,1.2c-4,1.1-7.5,0.5-11.2-1.9
		c0.2-0.9,0.4-1.6,0.6-2.4c1.5-5.5-0.4-8.8-5.9-9.8c-7.6-1.4-15.1-2.7-22.7-4c-12.6-2.1-25.2-4.4-37.9-6.2
		c-5.2-0.7-10.6-0.3-15.9-0.5c-2.8-0.1-5.5-0.5-8.3-0.6c-10.6-0.2-20.3-5-30.7-6.3c-2.4-0.3-5.1-0.5-7.4,0.2
		c-2.8,0.9-5.4,0.7-8.2,0.3c-9-1.6-18.1-3-27.2-4.4c-2.7-0.4-5.5-0.9-8.2-1.2c-3.4-0.3-6.8-0.4-10.2-0.6c-1.7-0.1-3.4-0.1-5-0.6
		c-2.7-1-3.2-3.6-0.9-5.5c1.5-1.3,3.7-2.1,5.7-2.4c2.1-0.4,4.3-0.1,6.4,0.2c15.7,2.2,31.3,4.6,46.9,6.8c11,1.5,22.1,2.7,33.1,4.1
		c1.7,0.2,3.5,0.2,5.1,0.8c8.6,3.1,17.7,2.7,26.6,4c10.4,1.6,20.8,2.9,31.1,4.4c1.7,0.3,3.3,0.8,4.9,1.4c5.5,2.2,11,2.9,16.9,1.4
		c3.5-0.9,7.2-1.3,10.8-1.2c3.1,0.1,6.4,0.6,9.2,1.8c4.1,1.6,8,2.9,12.4,2C299.3,430.5,301.3,431.3,303.2,431.4L303.2,431.4z
		 M696.9,71.5l-0.8-0.4c-0.5,0.5-1.4,0.9-1.5,1.5c-0.2,0.8,0.2,1.7,0.3,2.6c0.3,0,0.6,0,1,0C696.2,73.9,696.6,72.7,696.9,71.5
		L696.9,71.5z M687.4,75c0.4,0.3,0.8,0.6,1.2,1c1.7-0.5,3.3-1.2,2.2-4.6C689.4,72.9,688.4,73.9,687.4,75L687.4,75z M707,71.6
		c4.3-2.3,4.3-2.3,1.9-5.1C708.3,68,707.9,69.2,707,71.6L707,71.6z M619.8,68.3c0.6-0.1,1.2-0.2,1.7-0.4c1.2-2.2-0.3-3.6-3.2-5.7
		C619,64.9,619.4,66.6,619.8,68.3L619.8,68.3z M574.4,135.7c1.5-0.9,2.5-2.2,1.8-4.3c-0.1-0.4-1.1-0.9-1.5-0.7
		c-2.5,0.9-1.8,2.8-1.1,4.6C573.6,135.4,573.8,135.5,574.4,135.7L574.4,135.7z M643.7,105.8c0,1.7-5.1,4.8,0.8,6.2
		C644.1,109.6,643.9,107.7,643.7,105.8L643.7,105.8z M636,262.9c-3-1.2-6-2.1-9,1.7C630.6,263.9,633.3,263.4,636,262.9L636,262.9z
		 M598.8,124.7c-4.6,2.5-4.6,2.5-6.5,6C596.4,130.1,597.1,126.7,598.8,124.7L598.8,124.7z M657.8,194.3c4-3.1,4-3.1,10.6-2
		C664.6,193.7,661.5,195.2,657.8,194.3L657.8,194.3z M639.3,110.1c-4.7-4.5-8.3-8-11.3-10.8c0.5-4.2,0.8-7.3,1.1-9.8
		c3.3-2.7,6.2-5.1,9.2-7.5c0.8,3.8,0.5,4.5-5,8.9c0.8,1.2,1.5,2.3,2.3,3.5C638.5,98.7,638.8,103.7,639.3,110.1L639.3,110.1z
		 M621.7,131.8c-1.2-1.8-2.4-3.5-3.6-5.4c-4-1.5-8.1-1.5-12.2,0c-1,0.4-2.1,0.7-2.9,1.3c-8.9,6.8-16.6,14.6-22.6,24
		c-8.1,12.5-15.1,25.7-21.6,39.4c-6,0.1-12.1,0.1-18.8,0.2c-0.2-2.3-0.2-4.4,2.5-6.4c0.8,1.7,1.4,3.1,2.4,5.5c0.5-1.1,1.1-1.7,1-2.2
		c-0.2-1.6-0.7-3.2-1-4.8c-0.3-1.6-1.4-3.5-0.8-4.6c2.7-5.3,5.7-10.3,7.3-16.1c0.2-0.7,0.9-1.3,1.9-2.6c0.9,1.4,1.5,2.4,2.2,3.5
		l0.8-0.4c0-1.4,0.4-3.1-0.1-4.3c-1.3-3-0.4-5.9,1.4-7.8c3-3.2,4.7-6.9,6.4-10.7c0.2-0.5,0.9-0.8,2-1.7c0,1.8,0,3,0,4.8
		c1.6-0.7,3-1.4,4.2-2c-1.7-8.4-3.3-11.3,5.2-13.8c-0.4-3.9-0.4-3.9,2.7-7.8c0.5,2.5,0.9,4.6,1.4,6.8c3.7-2.6,3.7-2.6,2.7-7.2
		c-0.9-4-0.9-4,3.9-5.5c-0.3,2.3-0.5,4.4-0.8,7.3c2.1-1,3.2-1.5,4.4-2.1l0.6,0.8c-1.3,1.2-2.7,2.4-3.9,3.7c-1.1,1.2-2.1,2.6-2.8,4.3
		c7.1-4.7,13-11.6,22.4-11.4c2.3,5,2.8,5.1,7.2,0.5c-0.3,6.4,6.8,3.7,8.9,7.5c-0.8-3-1.9-6-2.3-9.1c-0.4-3.1-0.9-6.6,0.1-9.4
		c1-3.1,1.5-5.6,0.1-7.2c2.4-3,4.5-5.6,6.4-8.1c-1.4-3.9-2.8-7.5-4.3-11.8c-0.9,2.1-1.6,3.7-2.8,6.5c-2.1-6.7-3.9-12.2-5.6-17.7
		c-1.6-5.5-2.7-11.1-1.2-17c2.2-2,6.4-3.1,4.1-8c-0.5-1.1,1.2-2.7,3.1-1.9c1.1,0.4,2.1,0.9,3.9,1.7c-0.9-3.3-2.8-4.5-5.1-6.4
		c-2.9,4.2-5.6,8.1-8.6,12.4c-2.6-3.2-3-7.2-1.8-10.8c1.2-3.5,3.3-7.1,5.9-9.8c2.6-2.6,4.1-5.4,4.4-9c3.4,1.4,6.9,2.1,9.3,4.1
		c2.6,2.1,4.7,5.1,5.9,8.2c1.5,3.7,2.2,7.6,6.2,9.8c0.7,0.4,0.8,1.7,1.4,3.2c3.4-1.7,6.3-3.1,9.4-4.6c-0.1,2.4-0.1,2.4-8.7,9.8
		c-1.6-0.8-3.3-1.7-5.6-3c-0.2,2.2-0.3,4-0.4,5.9c-0.8,0.1-1.7,0.1-2.7,0.2c1.2,3.1,1.2,3.1,11.7,8.2c0.2-2.2,0.3-4,0.5-6.2
		c1.9,0.7,3.8,1.4,6.3,2.3c1.9-5,3.6-9.8,5.6-14.4c0.7-1.6,2.4-2.7,3.6-4l-0.2-0.2c-0.5,2-1,4-1.6,6.4c1.3-0.5,2.6-1.1,4-1.7
		c1.9,1.2,3.9,2.4,6.4,4.1c-2.9,1.5-5.4,3.6-8.1,4.1c-4.9,0.8-6.6,3.3-6,8c-3.8,1.9-7.3,3.6-8.3,8.3c-0.4,2.1-2,3.8,0.6,5.5
		c0.1,0.1-0.5,1.3-0.8,2.1c-3.9-1.9-4.7,2.3-7.2,3.6c3.1,0.6,5.9,0.2,8.7-1.3c4.2-2.2,8.5-4.1,12.7-6c1.2-0.5,2.4-0.7,4.3-1.2
		c1.6,3.5,3.1,6.8,4.8,10.7c2.3-3.2,0-5.3-0.3-7.5c-0.4-2.7-1-5.5-1.3-8.2c-0.4-2.5-0.6-5-0.9-8c1.3-0.1,2.7-0.3,5.1-0.6
		c-1.4,1.6-2.1,2.4-2.8,3.3c1.3,1.8,2.7,3.6,4,5.4c-1,1.3-1.8,2.2-3,3.6c1.7,1.4,3.2,2.6,4.9,4c3.7-3.9,3-10,7.6-12.3
		c0.5,0.1,0.8,0.2,0.9,0.3c0.5,1.6,0.9,3.2,1.4,5.1c1.2-1.5,2.3-2.7,3.3-4c2.8,0.2,5.5,0.5,8.1,0.8c2.9,2.4,2.4,5.2,1,8
		c2.7,1.4,4.8,1.7,6.4-0.8c0.3-2.9-6.1-2.2-3.1-6.4c7-0.8,13.5,0.7,20.8,4c-2,1.1-3.1,1.6-4.2,2.2c0.5,0.5,0.9,1.3,1.3,1.3
		c2.3-0.4,4.1,0.5,5.2,3.6c1.2-3,1.9-4.8,2.6-6.7c4.9,0,1.4,3.5,2.4,5.3c1.4-0.1,2.8-0.3,4.8-0.4c-0.7,5.8,4.3,11.1-0.3,17.2
		c0.7,0.4,1.3,0.6,1.8,1c0.4,0.3,0.8,0.8,1.3,1.4c-4.3,1.9-8.3,3.7-13,5.7c-0.5-1.8-1.4-3.5-1.3-5.2c0.3-3-0.6-4.9-3.1-5.7
		c0.9-4.5,6.9-5,6.8-11.3c-3.2,3-5.7,5.3-8.1,7.5c-1.1-0.2-2.6-0.5-3.9-0.7c-0.6-0.1-1.3,0.3-1.9,0c-9.6-3.4-12-3.6-21.6-2.2
		l-0.6,0.1c-6.6-2-9.1,1.8-10.6,7.2c-0.1,0.5-0.8,0.9-1.8,2.1c-1.7-2.3-3.3-4.6-5.3-7.2c-4.9,6.5-10.7,9.7-16.8,12.7
		c-2.5,1.3-4.5,3.6-6.5,6.2c5.1-1.3,10.2-2.6,15.6-4c-0.7,4.5-3.2,9.2-7.1,10.7c-6,2.3-8.3,6.8-10.8,11.8c-1.4,2.9-1.7,2.8-4.9,0.1
		c1.8-1.8,3.6-3.7,5.3-5.5c-4.7,0.8-6.8,4.5-10,7.4c2.1,3.2,3,6.3,0.8,10.3c-1.4,2.6,0.4,5.4,2.8,7.6c4.5,4.1,8.8,8.6,13.7,13.4
		c-1.6,1.1-2.6,2.1-3.8,2.8c-5.4,3.1-10.8,6-16.1,9.1c-0.6,0.4-0.7,1.7-1.4,3.9c3.4-2,5.6-3.3,9-5.4c-0.4,5.2-0.7,9.2-1,13.2
		c0.4,0.1,0.8,0.3,1.2,0.4c0.6-0.9,1.2-1.7,1.7-2.5c6.1,2.8,11.8-2.4,18.8-1.2c1.7,2.7,3.9,5.8,5.7,9.2c0.8,1.4,0.8,3.3,0.8,4.9
		c0.1,2.9,0.2,5.9-0.1,8.8c-0.2,2-0.4,4.4-3,5.1c-4.6,1.3-8.2,4.1-11.8,7.1c-2.6,2.1-4.7,5-9.5,3.2c1.8,4.1,3,6.9,4.3,10.1
		c-2.8,1.1-6,2.2-9.7,3.6c0-1.8,0-2.7,0-3.5c-1.9-0.9-4.9,1.4-8.1,6c3.3-0.6,6.2-1.1,9.1-1.7c3.1-0.6,6.1-1.3,9.9-2.1
		c-0.6,2.8-1.2,5.2-1.8,8.1c3.4-0.2,4-3.1,5.2-4.1c3,0.6,5.5,1.4,8,1.5c5.3,0.2,10.7-0.2,16,0.1c3.1,0.1,6.1,0.9,9.5,1.5
		c0.8-5.3,1.4-11.3,6.7-15.7c5.7,4.3,12,2.3,18.9,1.7c0.3,1.2,1.1,2.6,0.9,3.8c-0.5,3.6-1.2,7.2-2.2,10.7c-0.8,2.7,0.2,4.1,2.4,5.1
		c2.8,1.4,5.7,2.7,8.7,4.2c-3.3,5.7-9,6.3-13.6,8.7c-0.8,0.4-2.3-0.5-3.5-1c-3.4-1.2-6.8-2.4-10.1-3.7c-2-0.8-3.9-1.9-5.9-0.2
		c-0.3,0.2-0.8,0.1-1.2,0.1c-8.2-1.5-19.8-1.1-29.6,1.4c5.3,1.4,9.3,2.4,13.6,3.5c-1.1,1.9-1.9,3.6-2.9,5.1c-2.4,3.9-5.7,6-10.5,5
		c-2.4-0.5-5.1-0.7-6.9,3.1c3.1,0.4,5.7,0.7,8.2,1l0,0.7c-4.3,0-8.6,0-13,0.1c-2.8,0.1-5.5,0.4-8.3,0.7c-0.8,0.1-1.7,0.8-2.4,0.6
		c-3.6-0.6-7-1.9-10.4,0.8c-2.6,2-5.4,3.8-8.5,5.9c-1.1-1.4-2.3-2.9-3.4-4.2c2.8-8.1,1.8-12.7-4.1-18.5c2.1-0.5,3.9-0.9,5.7-1.4
		c1.9-0.5,3.7-1.1,5.3-1.5c0.8-1.8-1-4.4,2.4-4.6c0.3,0.3,0.9,0.6,1.2,1.1c0.9,1.3,1.5,3.1,2.7,4c3.8,3.1,7.8,5.9,11.8,8.7
		c4.8-6.6,4.2-11.4-1.6-16.3c-3.1-2.6-5.9-5.4-9.1-8.5c-0.7,0.1-2.1,0.3-3.9,0.5c0.5-1.2,0.5-2.1,0.9-2.2c1.3-0.5,2.7-0.8,4.2-1.2
		c-0.6-1.6-1.1-3-1.7-4.5c-1.5,0.6-3,1.2-4.1,1.5c-1.7-4.2-2.5-8.4-4.8-11.6c-2.3-3.2-1.5-8.8-7.6-9.4c1-1.5,1.9-2.8,2.8-4.2
		l-0.2,0.1c2.4-1,4.7-2,7.1-3l-0.2-0.8c-1.4-0.1-2.8-0.2-4.2-0.3l0.2,0.1c0.7-1.9,1.4-3.9,2.4-6.9c5.1,8.4,13.5,11.3,20,17.3
		c0.6-3.2,1-5.5,1.5-8.5c-5.1-6.4-10.5-13.1-18.2-18.3c1.8-1.2,3.9-1.8,4.9-3.2c1.1-1.4,1.2-3.6,1.7-5c-1.5-4.2-2.8-8.1-4.5-12.9
		c-1.9,2.3-3,3.6-4.2,5c1.1,0.6,1.8,1,2.8,1.5c-2.7,4-4.4,8.3-8.9,11.3c0.1-6.9,2.7-12.5,6-17.7c2.8-4.6,5.6-9,5.2-14.6
		c7.6-3.1,7.6-3.1,7.3-10.7c-1.6,1.7-3,0.9-4.5-0.2c-0.9,2.6-1.7,5.1-3,8.7c-1.7-2.8-2.8-4.6-2.8-7c0-1.6-0.8-3.2-1.3-4.9
		c2.3-1.4,2.3-1.4,0.1-4.5C621.7,129,621.7,130.4,621.7,131.8L621.7,131.8z M595.8,427.8c2.4,1.8,3.7,3.1,6.3,1
		C600,428.5,598.5,428.3,595.8,427.8L595.8,427.8z M612.4,360.3c-2.7-4.1-2.7-4.1-6.3-3.3C608.3,358,609.7,358.8,612.4,360.3
		L612.4,360.3z M525,541.7c4.2-1.8,4.2-1.8,3.7-4.9C526.3,538.2,526.3,538.2,525,541.7L525,541.7z M595.4,466.3
		c-0.6-4-3.7-4.5-6.1-6c-0.2,0.4-0.5,0.7-0.8,1.1C590.8,463,593.1,464.7,595.4,466.3L595.4,466.3z M486.8,542.6
		c-1.9,2.3-3,3.5-4.7,5.4c2.6,0.2,4.2,0.4,6.2,0.5C487.9,546.7,487.6,545.4,486.8,542.6L486.8,542.6z M601.8,489.4
		c5.3,0.5,5.2-3.3,7.2-6.3c-2,0.2-3.1,0.4-4.5,0.5c0.4,1.4,0.8,2.6,1.1,3.7C604.5,488,603.5,488.5,601.8,489.4L601.8,489.4z
		 M627.6,381.8c-1.4,5.4-4.3,8.9-5,13.8c6.7-0.4,8.2-7.3,14.6-9.1C633.5,384.7,631,383.4,627.6,381.8L627.6,381.8z M537.3,524
		c2.2,3.9,3.5,4.6,12.6,7.3c1-2.7,2.1-5.4,3.3-8.7c-4.4,0-7.8,0.1-11.2,0.1c-0.1,1.3-0.2,2.2-0.3,3.8
		C540.2,525.6,539.2,525.1,537.3,524L537.3,524z M591.9,412.4c9.3,3.2,17.2,9.3,26.2,13.5c-1.1,2.5-2.6,3.2-4.3,2.4
		c-2.5-1-5-2.2-7.3-3.6c-4-2.7-7.9-5.5-11.8-8.4c-1.2-0.9-2.2-1.9-3.3-2.8C591.5,413.1,591.7,412.7,591.9,412.4L591.9,412.4z
		 M514.3,543.5c-2.8-2.9-9-3.8-7.9-11.2c-3.2,2.3-6,3.6-5.8,7.3c4,4.2,8.2,8.1,13.7,10.1c1.5,0.5,3.6,1,4.7,0.4
		c2.5-1.4,5.3-3,5.5-6.7C521.3,543.4,518,543.4,514.3,543.5L514.3,543.5z M539.9,496.4c1.3-0.7,2.7-1.2,3.7-2.1
		c0.5-0.4,0.2-1.6,0.3-2.5c-0.5-0.1-0.9-0.3-1.4-0.4c-0.8,1.7-1.6,3.5-2.3,5.2c-1.2,1.2-2.5,2.3-3.7,3.5c0.4,0.3,0.8,0.6,1.2,0.9
		C538.4,499.4,539.1,497.9,539.9,496.4L539.9,496.4z M623.1,454.5c3.8-0.5,4.6-0.4,7.2,1.2c-0.5-2.1-1.4-3.9-1-5.4
		c0.4-1.7,2-3.1,3.6-5.4c-0.1,2.3-0.2,3.7-0.3,6.5c1.7-2,2.4-2.9,3.5-4.2c0.4,1.4,1.3,2.8,0.9,3.5c-1.3,2.4-2.8,4.7-4.8,6.6
		c-1.3,1.3-3.5,1.7-6.3,2.8c-1.4,2.5,0.1,5.4,2.4,8.1c-2.9,5-8.9,1.4-12.2,4.7c3.2,2.8,4,2.7,15.2-1.2c5.8,6.8,5.6,7.8-2.2,13.7
		c-1.2-0.4-2.4-0.7-4-1.1c-0.4,0.5-0.8,1-1,1.5c-0.9,1.4-1.5,3.1-2.5,4.4c-2.9,3.7-2.9,3.6-7.8,1.8c-1.1-0.5-2.5-0.5-3.6-0.8
		c-3.2,1.9-3.9,4.3-1.7,7.6c-2.2,2.1-4.3,4.1-7.2,6.9c2.2-0.2,3.6-0.4,5.2-0.5c0.5,2.4,1.3,4.9,1.7,7.3c0.7,4.3-1.9,8.4-6.2,9
		c-2.6,0.3-3.6,1.6-4.9,3.3c-1.8,2.5-3.9,4.8-6.2,7.6c-1.8-3-3.5-5.7-5.8-9.6c2.6,1.3,4,2.1,5.8,3c3.4-4.7,8.8-7.8,10.8-14.2
		c-2.5-0.3-5.4,2.2-7.1-0.6c-1.1-1.9-1.7-4.3-2.5-6.5c2.3-3.5,8.2-0.6,10.3-5.6c-3.7,0.5-6.9,0.9-10.3,1.4
		c-0.1-5.2,6.4-5.5,6.3-10.5c-4-0.1-6.3,2.9-7.5,5.1c-2.6,4.9-6,6.1-11.7,3.9c2.1,4.8,6.2,2.7,8.5,4.5c2.8,7.5,1.3,9.2-7.6,7.8
		c0.7,1.5,1.2,2.7,1.7,3.8c-2.2,1.1-4.5,2.2-6.7,3.3c0.1,0.3,0.1,0.7,0.2,1c1.2,0,2.3,0,4.1,0c0.2,0.4,0.7,1.4,1.5,2.9
		c-3,0.9-5.5,1.6-9,2.6c2.2,3.5,4.1,6.4,6.2,9.6c-3.5,6.8-5,7.4-10.9,4.4l0.2,0.2c-0.9-2.7-1.4-5.2,0.2-7.9c1.1-1.8,1.7-4,2-6
		c0.4-2.3,1.2-3.9,3.3-5.1c0.4-0.3,0.2-1.7-0.8-3.1c-1.4,1.7-2.8,3.3-4.4,5.2c-3.4,0-7,0.1-11,0.1c0.2,1.9,0.3,3.7,0.5,5.6
		c2.6-0.6,5.1-1.1,7.7-1.7c0.3,1.8,0.5,3,0.7,4.4c-3.5,3.2-7.4,2.5-11.3,1.4c-4.8,6.2-5,6.5-4.9,8.6c-3.1,1-6.3,2.1-9.8,3.3
		c1.6,3.9,5.3,4,8.4,5c-3.1,4-4,3.9-9.1-0.4c-0.5,1.6-1,3.1-1.7,4.8c-1.6-0.8-2.9-1.4-4.7-2.2c-3.9,2-8,5.2-12.6,6
		c-5.9,1.1-12.4,1.4-18-2.8c-0.7,0.5-1.6,1.1-2.8,1.9c1.5,1.3,2.7,2.3,4.1,3.5l-0.8,0.6c-8.3,1.1-11.9,0.8-23.7-7.6
		c0.7-1.6,1.5-3.2,2.3-5c-0.8-0.5-1.3-1.1-1.8-1.1c-0.8-0.1-1.7,0.4-2.5,0.4c-4.1,0-8.7,2.4-12.1-2.1c-12.4-4.3-24.9-6.3-37.6-1.3
		c-2.5,1-5.2,1.5-7.9,2.2c0.4-3.8,0.8-6.9,1.2-11.1c0.9-1.2,3.2,0.2,5.2-0.1c0.9-0.1,2.4-1.1,2.4-1.6c0-1-0.7-2.7-1.5-3
		c-2.4-0.9-4.9-1.5-7.5-1.8c-0.8-0.1-1.9,0.8-2.6,1.5c-1,1.1-1.6,2.4-1.7,2.6c-4.9,1.8-8.7,2.9-12.3,4.6c-6.3,3.1-13.3,3-19.8,4.9
		c-0.4,0.1-0.9,0.1-1.3,0c-6.5-2.3-12.6-0.2-18.8,1.3c-1.4,0.4-3,0.5-4.5,0.3c-4.4-0.5-8.5-0.2-12.4,2.1c-1.4,0.8-3.5,0.7-6.3,1.3
		c3.7,1.6,6.3,2.8,9,3.9c5.5,2.3,7.9,6.3,6.8,12.2l0.2-0.2c-3.5,1-7,2.1-10.5,2.8c-3.6,0.8-4.8-0.1-6.5-3.5
		c-2.1-3.9-4.5-7.7-6.4-11.7c-0.9-1.8-1.1-4.1-1.1-6.1c-0.1-2,1.4-3,3.4-3.1c1.1,0,2.2,0,3.2,0.4c6.1,2.1,11.3-0.4,16.4-3.2
		c2.3-1.3,2.7-3.1,2.3-5.4c-0.5-2.5-1.5-4.7-4.3-4.9c-2.1-0.1-4.2,0.3-6.3,1c-5.3,1.7-10.6,3.1-16.3,2.4c-1.2-0.1-2.7,0-3.7,0.6
		c-4.1,2.4-7.2,0.6-10.3-2.1c-2.2-1.9-4.6-3.6-6.9-5.4c1.8-3.5,4.6-3.1,7-3c5.4,0.1,10.7,0.3,16,0.7c3.6,0.2,6.7-1,8.2-4
		c2.4-4.7,6.6-6.4,11-8.1c1.6-0.6,3.2-1.3,4.5-2.3c3.4-2.5,3.2-4.6-0.1-7c-4-2.9-8.6-3.6-13.4-3.6c-8.8,0.1-17.5,0.1-26.3,0.4
		c-3.4,0.1-6.8,0.6-10.1,1c-2.4,0.3-4.6,0.4-6.5-1.6c5.7-2.8,11.1-4,15.9-3.4c4.6,0.6,9.1-0.5,13.1-2.5c3.1-1.5,5.5-1.2,8.5,0.3
		c2.4,1.2,5.2,1.7,7.9,2.1c5.3,0.8,10.6,1.4,15.9,2c1.9,0.2,3.8,0.4,5.8,0.4c8.6,0.4,16.8-0.5,24.1-6.2c4.6-3.6,10.4-5.9,15.4-8.7
		c12.7,0.1,25.6,0.1,38.4,0.3c12.4,0.1,24.8,0.6,37.2,0.7c10.7,0.1,21.4-0.1,32.1,0c3.6,0,7.2,0.9,10.8,0.8
		c9.1-0.4,18.3,0.3,27.4,0.1c1.9,0,3.9-0.2,5.6-0.9c4.5-1.7,6.5-5,6.5-9.9c0-17.7,0.3-35.4,0.4-53.2c0-1.9,0-3.8,0-5.3
		c2.5-3.3,5.4-1.4,7.8-1.1c1.3-5.5,1.3-5.5,4.5-7.9c-4.1-1.5-3.4-4.3-1.9-7.3c-2.5-2.3-4.8-4.5-7.3-6.8c5.6-2.5,7-7.8,9.1-13.5
		c-0.9-0.6-2.1-1.5-3.7-2.7c4.5-1.2,8.3-2.3,11.5-3.2c3.2,1.4,6.1,2.6,8.9,3.9c4,1.9,7.9,3.9,11.7,6.2c0.8,0.4,1,2.2,1,3.3
		c0,1.4-0.5,2.8,0,4.5c1.9-2.6,3.7-5.2,5.4-7.5c-7.8-4-15.4-7.9-22.8-11.7c1.5-4.3,2.7-8,4.2-12.3c-0.4,0.2-0.1-0.1,0.3-0.2
		c9.4-3.2,9.4-3.2,9.5-13.1c0-3.9,0-7.7,0-11.6c0-1.8,0.1-3.5,2.1-4c2.4,0.9,4.6,2.1,6.9,2.6c2.2,0.4,4.6,0.1,7.1-0.4
		c-3.3-2.9-7.7-3.2-12.4-4.8c0.1-2.1,0.2-4.3,0.3-6.5c-5.7-5.1-4.2-11.6-3.1-18.6c3.6,2.3,6.7,4.4,10,6.2c1.2,0.6,3.2,1.1,4,0.5
		c0.8-0.6,1.2-2.9,0.7-4c-0.7-1.6-2.1-3.1-3.6-4.1c-2.8-1.9-5.9-3.3-8.7-4.9c0.5-10.4,2.3-12.4,14.1-15.8c0.9,2,1.8,4,3,6.8
		c1.7-2.2,2.9-3.9,4.3-5.6c4.8,2.6,1.5,5.7,1,8.8c1.1,0.3,2.3,0.5,4.3,0.9c-0.9-1.4-1.4-2.1-1.9-2.9c0.9-2.4,3.7-2.7,9.6-1.1
		c-1.1,1.2-2.1,2.1-3.3,3.3c1.6,0.8,3.3,1.8,5.5,2.9c1.8-6.1,3.5-12.1,5.4-18.4c-1.9-0.8-3.6-1.5-5.8-2.4c5.1-0.1,9.5-0.3,14,0
		c1.3,0.1,2.6,1.5,4,2.4c2.1-1.3,1.4-6.6,6.2-5.2c3.5,7-2.3,12.8-2.8,19.6c4.2,2.7,8.9,4,13.7,4.4c4.7,0.4,9.1,1,13.4,3.6
		c3.2,1.8,7.3,2,11.9,3.2c1.6-3.2,3.5-6.9,5.4-10.5c5.4-0.8,8.7,3.2,13.5,5.6c-1.5,4.9-3,9.9-4.6,15.3c1.5,4.3,6.2,5.9,8.9,9.2
		c1.2-0.7,2.2-1.2,3.3-1.8c0.5,3.5-1.7,4.3-3.7,4.6c-4.4,0.7-8.9,1.4-13.4,1.4c-2.6,0-5.6-0.1-7.2-3.2c-0.4-0.8-1.7-1-2.5-1.5
		c-1.7-1.1-3.4-2.2-4.8-3.1c0.6-4,1-7.2,1.7-12.1c-2.7,2.2-4.1,3.3-5.5,4.5c-6.9-1.7-13.7-3.7-20.8-4.9c-6.7-1.2-13.6-3.4-20.8,0
		c-0.9-1.4-1.9-3.1-3.7-6c-0.2,3.1-0.4,4.5-0.5,5.9c-3,1.6-6.3-2.2-9,1.4c0.7,3.7,3.1,5.3,6.9,4.7c0.6,6.9-2.1,8.5-11,6.7
		c-1.9,1.3-3.8,2.6-6.3,4.3c2.8,1.4,5.2,2.6,7.7,3.9c-5.9,1.6-8,1.1-10.9-3.1c-1,1.9-2.1,3.7-3,5.6c-0.3,0.7-0.5,2.2-0.2,2.4
		c2.8,2,0.7,4.2,0.4,6.3c-0.3,2-0.7,4.1,0,6.5c1.6-3.7,3.2-7.4,4.9-11.3c0.7,1.4,1.4,2.8,2.1,4c-3.3,3.6-2.7,7.7-2.4,12.4
		c1.2-0.5,1.9-0.8,2.5-1.2c0.5-0.3,0.8-0.9,1.7-2.1c0,1.9,0,2.9,0,3.9c6.2,1.6,12.1,3.2,18.2,4.5c1,0.2,3-0.4,3.3-1.1
		c2.4-5.4,5.8-10.4,6.7-16.3c-3-1.2-5.5-2.2-8.9-3.5c6.8-1.2,9.2,0,10.4,4.7c1.3-0.8,2.4-1.4,4.3-2.6c0.3,3.9,0.6,7.3,1,11.7
		c1.5-3.8,2.7-6.8,4-10.2c4.1,1.2,8.6,2.5,13,3.7c-0.1,0.3-0.1,0.7-0.2,1c-1.8-0.2-3.5-0.4-6.1-0.7c3.7,5.1,1.5,9.4-0.5,13.8
		c-0.7,1.5-1.3,3.1-2.2,5.1c6.8,3.5,12.5,8.5,21.2,9.1c0.5-0.5,1.5-1.7,2.6-2.8c0.5-0.1,0.9-0.3,1.3-0.1c2.2,0.6,4.2,1.5,3.7,4.3
		c-0.4,2.3-3.3,3.8-6.1,3.4c-1.9-0.3-3.9-0.5-5.6-1.3c-3-1.3-5.8-2.2-9.2-0.9c-1.3,0.5-3.2-0.9-4.9-0.9c-2.9,0-3.3-4.8-7.5-3.3
		c-2.3,0.8-5.6-1.5-8.5-2.1c-2.4-0.5-4.8-2.1-7.3-0.1c-0.3,0.2-1.3,0-1.8-0.3c-5.3-3-11.4-3.1-17-5.2c-2.7-1-4.5,0.1-6,2.5
		c3.6,6.4,11.5,2.3,15.8,6.5c-1.1,2.7-2.2,5.3-3.2,7.6c-6.1,1.6-12.3-3-18.7,0.1c-0.7,0.3-1.8,0.4-2.5,0.1c-5.4-2.6-11.8-2-16.8-5.5
		c-1-0.7-2.3-1.3-3.5-1.4c-0.8-0.1-1.7,0.7-3,1.3c3.7,1.5,6.8,2.7,9.9,3.8c3.4,1.2,5.3,3.4,4.3,8.1c4.3-1.4,7.6-2.2,10.5-3.6
		c2.2-1,4.3-1.4,6-0.1c4.5,3.5,10.1,3.9,15.2,5.8c5.8,2,11.3,4.7,16.9,7.1c-2.7,2.9-5.5,3.2-9.2,1.7c-3.3-1.3-6.9-1.7-10.4-2.6
		c-0.2,0.5-0.4,1-0.4,1c3.3,1.9-0.7,4.6,0.8,6.8c1.3,1.8,3.1,3.2,3.1,5.9c0.1,3.9,4.4,7.3,8.2,7.1c1.6-0.1,3.2,0,5.1-0.1
		c1.6-5.3,6.9-9,6.6-15.4c5.8,1.7,8,7,11.9,9.8c1.5,6.2-4.1,10.2-4.6,15.9c2.7,0.9,5.1,1.6,7.3,2.3c3.9-1.1,4.5-4.7,6.7-7.2
		c-0.1,3.8-1.8,6.9-4.6,9.2c-1,0.8-2.8,0.9-4.2,0.6c-4.2-0.9-8.3-2.1-11.6-5.7c-5.2,3.1-10.5,4.7-15.8-0.2c1.1-2.2,2.1-4.3,3.2-6.6
		c-4.9-0.1-9.1,0-13.2-0.4c-4.9-0.4-8.3,1.1-9.6,6.2c-0.3,1.2-0.9,2.3-0.7,4c0.7-1,1.3-2.1,2-3.1c0.8-1.2,1.4-2.8,2.5-3.4
		c1.6-0.9,3.6-1.5,4.1,1.7c0.1,1,1.3,1.9,2.1,3.1c-0.7,2.4-1.4,5-2.2,7.7c-1.5-0.6-3-1.3-4.3-1.9c-2.4,1.7-4.5,3.3-6.7,4.9
		c1.2,3.1,4,2.8,6.4,3.6c3.5,1.2,7.1,2.3,6.9,7.2c-2.2,3.1-5.6,0.3-7.7,1.2c-2.8,4.6-5.3,8.7-7.8,12.9c-6.4,1.9-9.6,6.9-11.4,13.1
		c-4-1-7.5-2.8-11.5-0.9c2.9,3.9,7.5,2.4,11,4.2c0.2,2.7,0.5,5.4,0.7,8.2c-1.8-0.4-3.6-0.8-5.5-1c-0.8-0.1-1.5,0.6-2.3,0.9
		c2.7,0.5,5.4,2.6,7.6-0.2c0.8-2.2,1.3-4.4,2.2-6.5c1-2.3,1.9-5.3,3.7-6.3C622.7,463.5,623.7,459.5,623.1,454.5z"/>
	<path class="st0" d="M378.5,218.3c0.3-0.7,0.8-1.3,1.3-1.8c0.4-0.4,0.8-0.7,1.2-1c-0.5-0.3-1-0.7-1.5-1.2c-0.4-0.4-0.7-0.8-1-1.3
		L378.5,218.3L378.5,218.3z M298.3,235.1l-4.6,0.4v-1c-2.2-0.6-4.1-1.5-5.9-2.8c-1.1,1.7-3.1,3-5.9,3l-10.3,0.1
		c-0.5,0-1.1,0-1.6-0.1l0,0.1l-14.5,0.1c-4.6,0-7-3.2-7-6.4c0-1.4,0.4-2.7,1.2-3.8c0.4-0.6,1-1.1,1.7-1.5l-0.1-12.3l1.3-0.3
		l-0.8-2.2c-2.3-1.1-3.7-3.3-3.7-5.9c0-2,0.9-3.9,2.4-5.1c0.8-0.7,2.3-1.5,4.5-1.5l26.6-0.3c2.8,0,4.8,1.2,5.9,2.8
		c1-0.8,2.2-1.5,3.4-2.1c0.8-0.4,1.6-0.6,2.4-0.9l0-0.8l4.6,0.2l4.6-0.3v0.8c0.9,0.2,1.7,0.5,2.4,0.8c0.5,0.2,1,0.5,1.5,0.8l0-1.6
		l34-0.3v1.6c0.5-0.3,1-0.5,1.5-0.8c0.8-0.3,1.6-0.6,2.4-0.9l0-0.8l4.6,0.2l4.6-0.3l0,0.8c0.8,0.2,1.7,0.5,2.4,0.8
		c1.8,0.8,3.5,1.9,5.1,3.4c0.4,0.4,0.8,0.9,1.2,1.3c1.5-1.8,3.3-3.3,5.3-4.4c1.2-0.7,2.3-1.1,3.5-1.4l0-1.4l6.5,1l2.8,0.1v0.6
		l0.2,0.1c1-0.6,2.1-0.9,3.3-0.9c1.3,0,2.4,0.3,3.4,0.9c0.7-0.3,1.5-0.4,2.3-0.4l15.1-0.1v0.1c0.4,0,0.7,0.1,1.1,0.1
		c2.5,0.2,4.8,1.1,6.9,2.5c1.1,0.8,2.1,1.8,2.8,2.9c0.4-0.5,0.8-0.9,1.3-1.4c1.5-1.5,3.2-2.7,5-3.5c0.8-0.4,1.6-0.6,2.4-0.9l0-0.8
		l4.6,0.2l4.6-0.3l0,0.8c0.8,0.2,1.6,0.5,2.4,0.8c1.8,0.8,3.5,1.9,5.1,3.5l0.5,0.5c0.8-0.9,1.6-1.8,2.6-2.4c1.5-1.1,3.2-1.9,5.2-2.4
		v-0.8l4,0.3l5.4-0.3v1l0.5,0.1c0.9-0.4,1.8-0.6,2.8-0.6c2.2,0,4.2,1,5.4,2.7l0.2-0.1c1.5-1.1,3.3-1.9,5.2-2.4v-0.8l4,0.3l5.4-0.3v1
		l0.5,0.1c0.8-0.4,1.8-0.7,2.8-0.7c2.2,0,4.3,1,5.5,2.9c0.8,1.2,1.1,2.6,1.1,4.2l0.1,6.8c0,1.3-0.3,2.6-0.9,3.6c1.3,2.1,2,4.6,2,7.2
		c0,2.8-0.6,5.3-2,7.7c-1.3,2.3-3.2,4.2-5.6,5.5c-1.2,0.7-2.5,1.2-3.9,1.6l-0.2,0v0.5l-9.4,0.1v-0.6l-0.7-0.3
		c-0.9,0.4-1.8,0.6-2.7,0.6c-1.9,0-3.9-0.8-5.2-2.6c-0.4,0.3-0.8,0.5-1.2,0.8c-1.2,0.7-2.5,1.2-3.9,1.6l-0.2,0.1v0.5l-9.4,0.1V233
		l-0.7-0.2c-0.8,0.4-1.8,0.6-2.7,0.7c-2.1,0-4.3-1-5.5-3.1c-1.7,1.3-3.6,2.3-5.7,2.8l0,1l-4.7-0.4l-4.6,0.4v-1
		c-2.4-0.6-4.5-1.7-6.4-3.2c-0.4,0.5-0.9,1-1.4,1.4c-1.1,0.9-2.3,1.5-3.6,2c-1.1,0.4-2.5,0.6-3.9,0.6c-2.3,0-4-0.5-5.4-1.2
		c-1,0.5-2.1,0.7-3.5,0.7l-10.3,0.1c-1.6,0-3.1-0.4-4.3-1.2c-0.4-0.3-0.6-0.5-0.9-0.8c-0.8,0.5-1.5,1-2.3,1.4
		c-0.5,0.2-1.1,0.5-1.7,0.6l0,0.6l-3.7,0l-5.6,0.3V234c-2.3-0.5-4.4-1.4-6.3-2.7c-1.1-0.8-2.1-1.7-3-2.7l-0.8,0.8
		c-2.1,2.2-4.7,3.7-7.6,4.5l0,1l-4.7-0.3l-4.6,0.4v-1c-3-0.8-5.5-2.2-7.7-4.4c-0.3-0.3-0.6-0.6-0.9-1c-0.3,1.8-1.4,3.4-3,4.4
		c-1.1,0.7-2.5,1.1-4.2,1.1l-10.4,0.1c-1.6,0-3.1-0.4-4.2-1c-1.6-1-2.7-2.6-3-4.4c-0.3,0.3-0.6,0.6-0.9,0.9
		c-2.2,2.2-4.7,3.7-7.6,4.6v1L298.3,235.1L298.3,235.1z M540.8,232.3l-10.8,0.1l-5.7-18.7c-0.6,0.2-1.3,0.4-2.1,0.4l-0.4,0l0,6.6
		c1.6,1.2,2.6,3.1,2.6,5.2c0,2.3-1.2,4.3-3.1,5.5c-1.1,0.7-2.5,1.1-4.2,1.1l-10.4,0.1c-1.6,0-3-0.4-4.2-1c-1.9-1.2-3.1-3.2-3.1-5.5
		c0-2.1,0.9-4,2.4-5.2l0-6.7l-0.3,0c-1.9,0-3.7-0.8-5-2.2c-1.1-1.2-1.8-2.8-1.8-4.6l-0.1-13.9l40.9-0.4c0.9,0,1.4,0,1.9,0.1
		c0.6,0.1,1.2,0.3,1.7,0.5c0.9-0.4,1.9-0.6,3-0.6l5,0c0.8,0,1.7,0,2.7,0.3c0.8-0.3,1.6-0.4,2.5-0.4l39.5-0.3v0.1
		c0.4,0,0.8,0,1.1,0.1c2.5,0.2,4.9,1.1,6.9,2.5c3.2,2.3,5,5.8,5,9.9c0,2.5-0.6,4.8-1.8,6.7c0.2,0.4,0.4,0.7,0.6,1.1
		c0.6,1.2,1,2.4,1.1,3.7c0.5,0.3,0.9,0.6,1.3,1.1c1.2,1.3,1.8,2.8,1.9,4.5c0,1.5-0.5,3-1.5,4.6c-0.7,1.1-1.5,2.1-2.6,2.9
		c-1.1,0.9-2.3,1.6-3.6,2c-1.2,0.4-2.5,0.6-3.9,0.6c-2.3,0-4.1-0.5-5.5-1.2c-1,0.5-2.1,0.7-3.4,0.7l-34.8,0.3
		c-1.6,0-3.1-0.4-4.3-1.3c-1.7-1.2-2.7-3.1-2.8-5.3c0-1.9,0.8-3.6,2.1-4.9l0-4.6l-0.9,3.2l0,0l-3.3,12.8h-0.1l-1.3,5L540.8,232.3z"
		/>
	<path class="st2" d="M592.9,212.6c1.2,0.2,2.2,0.4,2.9,0.6c0.7,0.2,1.3,0.5,1.8,0.9c0.5,0.4,1,0.9,1.3,1.5c0.3,0.6,0.5,1.2,0.5,1.9
		l0,4.3c0,0.4,0.1,0.6,0.4,0.6l0.3-0.1l0.3-0.4c0.3-0.5,0.7-0.7,1-0.7l0.7,0.4l0.4,0.7c0,0.4-0.2,1-0.6,1.6
		c-0.4,0.6-0.9,1.2-1.5,1.7c-0.5,0.5-1.2,0.8-1.8,1c-0.6,0.2-1.4,0.3-2.3,0.3c-1.8,0-3.2-0.5-4.2-1.5c-1-1-1.5-2.5-1.5-4.3l0-3.5
		c0-0.8,0-1.2,0-1.3c-0.1-0.5-0.3-1-0.6-1.4c-0.4-0.5-1-0.8-1.7-0.9l0-2.2c0.7-0.1,1.3-0.3,1.5-0.6l0.6-0.9c0.1-0.3,0.1-0.8,0.1-1.4
		l-0.1-5.5c0-0.9-0.2-1.5-0.5-1.9c-0.3-0.4-0.9-0.8-1.8-1l0-2.3h0.5c1.5,0,2.8,0,3.8,0.1c1.6,0.1,3,0.6,4.2,1.5
		c1.8,1.3,2.7,3.1,2.7,5.4c0,1.9-0.6,3.5-1.8,4.8c-0.5,0.5-1.1,1-1.8,1.3C595.3,211.8,594.2,212.2,592.9,212.6L592.9,212.6z
		 M586.5,198.3l-9.1,0.1l-0.5,0c-0.5,0-0.9,0.1-1.1,0.3c-0.3,0.2-0.4,0.5-0.4,0.8c0,0.5,0.3,0.9,0.8,1.1c0.5,0.2,0.7,0.2,0.8,0.3
		l0.3,0.3c0.1,0.2,0.2,0.5,0.3,1l0.2,20.7c0,0.5-0.1,0.8-0.2,1l-0.2,0.3c-0.1,0-0.4,0.1-0.8,0.3c-0.5,0.2-0.8,0.5-0.8,1.1
		c0,0.4,0.1,0.6,0.4,0.8c0.3,0.2,0.6,0.3,1.1,0.3l0.5,0l9.1-0.1l0.7,0c0.6,0,1-0.1,1.3-0.3c0.4-0.2,0.5-0.5,0.5-0.9
		c0-0.6-0.3-1-1-1.2c-0.5-0.1-0.9-0.2-0.9-0.3l-0.3-0.3c-0.2-0.2-0.3-0.6-0.3-1.2L586.5,198.3L586.5,198.3z M564.1,226.7l0-2.2
		c0.9-0.1,1.6-0.4,2.2-0.6c0.6-0.3,1.2-0.6,1.7-1.2c0.6-0.5,1-1,1.4-1.6c0.4-0.5,0.7-1.3,1-2.2c0.1-0.4,0.3-0.8,0.5-0.9l0.7-0.3
		c0.4,0,0.6,0.1,0.8,0.3c0.1,0.2,0.2,0.6,0.2,1.2l0.1,7.3L564.1,226.7L564.1,226.7z M563.9,198.5l8.2-0.1l0.1,7.3
		c0,0.4-0.1,0.7-0.2,0.9c-0.2,0.2-0.4,0.3-0.8,0.3l-0.6-0.2c-0.1-0.1-0.3-0.4-0.4-0.8c-0.5-1.6-1.3-2.8-2.3-3.6
		c-1-0.8-2.3-1.3-3.9-1.5L563.9,198.5L563.9,198.5z M563.9,213.5c0.7,0.2,1.3,0.5,1.7,1c0.4,0.5,0.8,1.2,1,2.2
		c0.1,0.4,0.3,0.8,0.4,0.9l0.7,0.3c0.4,0,0.7-0.1,0.8-0.4c0.1-0.3,0.2-0.7,0.2-1.4l0-7.8c0-0.6-0.1-1-0.2-1.2
		c-0.1-0.3-0.5-0.5-0.9-0.5c-0.3,0-0.6,0.1-0.8,0.3c-0.1,0.2-0.3,0.6-0.4,1.1c-0.2,0.8-0.4,1.4-0.8,1.8c-0.4,0.5-0.9,0.9-1.7,1.3
		V213.5L563.9,213.5z M562,198.5l0.3,28.2l-9,0.1l-0.5,0c-0.5,0-0.9-0.1-1.2-0.3c-0.2-0.2-0.4-0.4-0.4-0.8c0-0.6,0.3-0.9,0.8-1.1
		c0.4-0.1,0.7-0.3,0.8-0.3l0.3-0.3c0.1-0.2,0.2-0.6,0.2-1l-0.2-20.7c0-0.5-0.1-0.8-0.3-1.1l-0.2-0.2c-0.1,0-0.4-0.1-0.8-0.3
		c-0.5-0.1-0.8-0.5-0.8-1.1c0-0.4,0.1-0.6,0.4-0.8c0.3-0.2,0.6-0.3,1.1-0.3l0.5,0L562,198.5L562,198.5z M542,216.7l-1.1-3.9l2.3-8.7
		c0.1-0.6,0.2-0.9,0.2-1c0-0.3,0-0.6-0.2-1c-0.2-0.5-0.5-0.8-1-0.9l-0.7-0.3c-0.5-0.1-0.8-0.5-0.8-1c0-0.4,0.1-0.6,0.4-0.9
		c0.3-0.2,0.7-0.3,1.2-0.3l5,0c0.6,0,1,0,1.2,0.1c0.3,0.2,0.5,0.5,0.5,0.9l-0.1,0.6l-0.6,0.4l-1,0.5c-0.4,0.2-0.8,0.6-1.2,1.2
		c-0.4,0.6-0.7,1.3-0.9,2.1L542,216.7L542,216.7z M541.2,219.6l-4.9-16.8l-0.1-0.6c0-0.4,0.1-0.6,0.2-0.8c0.1-0.2,0.4-0.4,0.7-0.5
		c0.5-0.2,0.7-0.6,0.7-1.1l-0.2-0.5l-0.3-0.4l-0.5-0.2c-0.2,0-0.6,0-1.2,0l-9.1,0.1c-0.6,0-1.1,0.1-1.4,0.3c-0.4,0.3-0.5,0.6-0.5,1
		l0.2,0.6c0.1,0.2,0.4,0.3,0.9,0.5l0.5,0.3c0.1,0.1,0.2,0.4,0.3,0.8l7.5,24.6l5.4,0L541.2,219.6L541.2,219.6z M523.3,198.8l0.1,8.5
		c0,0.4-0.1,0.7-0.3,1c-0.2,0.3-0.5,0.4-0.9,0.4c-0.4,0-0.6-0.1-0.9-0.4c-0.2-0.2-0.4-0.5-0.4-0.9l-0.2-1.2
		c-0.2-1.3-0.6-2.4-1.2-3.3c-0.4-0.6-0.9-1-1.5-1.4l0-2.5L523.3,198.8L523.3,198.8z M516.3,198.9l-9,0.1l0.2,24.3
		c0,0.5-0.1,0.9-0.3,1.1l-0.3,0.3c-0.1,0-0.4,0.1-0.9,0.3c-0.6,0.2-1,0.5-1,1.2c0,0.4,0.2,0.6,0.5,0.8c0.3,0.2,0.8,0.3,1.4,0.3h0.6
		l9.1-0.1l0.7,0c0.6,0,1-0.1,1.3-0.3c0.4-0.2,0.5-0.5,0.5-0.9c0-0.6-0.4-1-1-1.2c-0.5-0.1-0.8-0.2-0.9-0.2l-0.3-0.3
		c-0.2-0.2-0.3-0.6-0.3-1.2L516.3,198.9L516.3,198.9z M500.2,199l5.3,0l0,2.5c-0.6,0.4-1.1,0.9-1.5,1.4c-0.6,0.9-1,2.1-1.2,3.3
		l-0.2,1.3c-0.1,0.4-0.2,0.7-0.4,0.9c-0.2,0.2-0.5,0.4-0.9,0.4c-0.3,0-0.6-0.1-0.9-0.4c-0.2-0.3-0.3-0.6-0.3-1L500.2,199L500.2,199z
		 M478.3,201l0-2.3c0.8,0,1.5,0.1,2.1,0.3c0.6,0.1,1.4,0.5,2.6,0.9l0.7,0.1l0.5-0.3l0.5-0.6l0.8-0.5c0.4,0,0.6,0.1,0.8,0.4
		c0.2,0.2,0.3,0.7,0.3,1.3l0.1,6.8c0,0.4-0.1,0.8-0.3,1c-0.2,0.2-0.5,0.4-0.9,0.4l-0.7-0.3l-0.3-0.4c-0.1-0.1-0.1-0.4-0.2-0.8
		c-0.2-0.6-0.4-1.4-0.8-2.1c-0.4-0.7-0.8-1.3-1.3-1.9C481,202.1,479.8,201.4,478.3,201L478.3,201z M475.9,225.6v2.4
		c-1.1,0-2.3-0.3-3.7-0.9c-0.5-0.3-0.9-0.4-1-0.5l-0.5-0.1l-0.6,0.1c-0.1,0.1-0.4,0.3-0.7,0.7l-0.8,0.5c-0.8,0-1.2-0.6-1.2-1.8
		l-0.1-7.5c0-0.4,0.1-0.7,0.3-1c0.2-0.3,0.5-0.4,0.8-0.4l0.7,0.2c0.2,0.2,0.3,0.5,0.4,1c0.3,1.2,0.8,2.3,1.4,3.3
		c0.6,1,1.3,1.9,2.1,2.6C473.9,225,474.8,225.4,475.9,225.6L475.9,225.6z M476.7,198.7c-2.4,0.1-4.3,0.8-5.9,1.9
		c-1.1,0.8-2,1.9-2.6,3.2c-0.6,1.3-0.9,2.8-0.9,4.4c0,3.1,1.3,5.5,3.9,7.3c0.6,0.4,1.2,0.8,1.8,1.1c0.6,0.3,1.8,0.8,3.5,1.6
		c1.5,0.6,2.6,1.2,3.1,1.7c0.8,0.7,1.2,1.5,1.3,2.4c0,0.9-0.3,1.6-0.8,2.1c-0.5,0.5-1.4,0.9-2.5,1.2l0,2.3c0.9,0,1.8-0.1,2.7-0.4
		c1-0.3,1.8-0.6,2.7-1.1c1.5-0.8,2.7-2,3.5-3.5c0.9-1.5,1.3-3.1,1.3-4.9c0-2.3-0.8-4.4-2.4-6c-0.6-0.6-1.2-1.2-1.9-1.6
		c-0.7-0.4-1.6-0.9-2.8-1.4c-2-0.9-3.3-1.4-3.9-1.8c-0.8-0.5-1.4-0.9-1.8-1.5c-0.4-0.5-0.6-1.1-0.6-1.8c0-0.7,0.2-1.3,0.6-1.8
		c0.4-0.5,1.1-0.9,1.9-1.1V198.7L476.7,198.7z M455,201.3l0-2.3c0.8,0.1,1.5,0.2,2.1,0.3c0.6,0.1,1.4,0.5,2.6,0.9l0.7,0.2l0.6-0.3
		l0.4-0.6l0.8-0.4c0.4,0,0.6,0.1,0.8,0.4c0.2,0.3,0.3,0.7,0.3,1.3l0.1,6.8c0,0.4-0.1,0.7-0.3,1c-0.2,0.3-0.5,0.4-0.9,0.4l-0.7-0.3
		l-0.3-0.4c-0.1-0.1-0.2-0.4-0.3-0.8c-0.1-0.7-0.4-1.4-0.8-2.1c-0.4-0.7-0.8-1.3-1.3-1.9C457.7,202.3,456.5,201.6,455,201.3
		L455,201.3z M452.6,225.8v2.3c-1.1,0-2.3-0.3-3.7-0.9c-0.5-0.2-0.9-0.4-1-0.4l-0.6-0.1l-0.6,0.1c-0.1,0.1-0.3,0.3-0.7,0.7l-0.8,0.5
		c-0.8,0-1.2-0.6-1.2-1.8l0-7.5c0-0.4,0.1-0.7,0.3-1c0.2-0.3,0.5-0.4,0.8-0.4l0.7,0.3c0.2,0.2,0.3,0.5,0.5,1
		c0.3,1.2,0.8,2.3,1.4,3.3c0.6,1,1.3,1.9,2.1,2.6C450.6,225.2,451.5,225.7,452.6,225.8L452.6,225.8z M453.3,198.9
		c-2.3,0.1-4.3,0.8-5.9,1.9c-1.2,0.8-2,1.9-2.6,3.2c-0.6,1.3-0.9,2.8-0.9,4.4c0,3.1,1.3,5.5,3.9,7.3c0.6,0.4,1.2,0.8,1.8,1.1
		c0.6,0.3,1.8,0.8,3.5,1.5c1.5,0.7,2.6,1.2,3.1,1.7c0.8,0.7,1.2,1.5,1.2,2.4c0,0.9-0.2,1.6-0.8,2.1c-0.5,0.5-1.4,0.9-2.6,1.3l0,2.3
		c0.8,0,1.8-0.1,2.7-0.4c1-0.3,1.9-0.6,2.7-1.1c1.5-0.9,2.7-2,3.6-3.5c0.9-1.5,1.3-3.1,1.3-4.9c0-2.3-0.8-4.4-2.4-6.1
		c-0.6-0.6-1.3-1.2-1.9-1.6c-0.7-0.4-1.6-0.9-2.9-1.4c-2-0.9-3.3-1.5-3.8-1.8c-0.8-0.5-1.4-1-1.8-1.5c-0.4-0.5-0.6-1.1-0.6-1.8
		c0-0.7,0.2-1.3,0.6-1.8c0.4-0.5,1.1-0.9,1.9-1.1L453.3,198.9L453.3,198.9z M429.9,201.3l0-2.2c1.5,0,2.8,0.3,4,0.9
		c1.2,0.5,2.4,1.3,3.4,2.3c2.8,2.7,4.2,6.5,4.2,11.4c0,4.8-1.3,8.5-3.9,11.2c-2,2.1-4.5,3.3-7.6,3.5l0-2.3c0.4-0.1,0.6-0.2,0.8-0.3
		l0.5-0.6c0.4-0.6,0.5-1.4,0.5-2.6l-0.1-18.4c0-0.8-0.1-1.3-0.4-1.8l-0.6-0.7C430.7,201.6,430.4,201.5,429.9,201.3L429.9,201.3z
		 M428.3,201.3c-0.7,0.3-1.2,0.6-1.4,1c-0.3,0.4-0.4,1-0.4,1.9l0.2,18.5c0,1.2,0.2,2.1,0.5,2.6c0.3,0.4,0.8,0.7,1.4,0.9l0,2.3
		c-3-0.2-5.5-1.3-7.6-3.4c-2.7-2.6-4-6.3-4.1-11.1c0-2.4,0.3-4.6,1-6.5c0.6-1.9,1.7-3.6,3.1-4.9c1-1,2.1-1.8,3.3-2.4
		c1.2-0.5,2.5-0.9,4-0.9L428.3,201.3L428.3,201.3z M405.9,214.2c1.3,0.2,2.2,0.4,2.9,0.6c0.7,0.2,1.3,0.5,1.8,0.9
		c0.6,0.4,1,0.9,1.3,1.5c0.3,0.6,0.5,1.2,0.5,1.9l0,4.2c0,0.5,0.1,0.7,0.4,0.7l0.3-0.1l0.3-0.4c0.4-0.5,0.7-0.7,1-0.7l0.7,0.4
		l0.4,0.8c0,0.4-0.2,0.9-0.6,1.5c-0.4,0.6-0.9,1.2-1.5,1.7c-0.6,0.5-1.2,0.8-1.8,1c-0.6,0.2-1.4,0.3-2.3,0.3c-1.8,0-3.2-0.5-4.2-1.5
		c-1-1-1.5-2.5-1.5-4.4l0-3.5c0-0.8,0-1.2,0-1.3c-0.1-0.6-0.3-1-0.6-1.4c-0.4-0.5-1-0.8-1.7-0.8l0-2.2c0.7-0.1,1.2-0.3,1.5-0.6
		l0.5-0.9c0.1-0.3,0.1-0.8,0.1-1.4l0-5.5c0-0.9-0.2-1.5-0.5-1.9c-0.3-0.4-0.9-0.8-1.8-1l0-2.3h0.5c1.5,0,2.8,0,3.8,0.1
		c1.6,0.1,3,0.6,4.2,1.5c1.8,1.3,2.7,3.1,2.7,5.5c0,1.9-0.6,3.5-1.8,4.8c-0.5,0.5-1.1,0.9-1.7,1.3
		C408.3,213.4,407.3,213.8,405.9,214.2L405.9,214.2z M399.5,199.9l-9,0.1l-0.5,0c-0.5,0-0.9,0.1-1.2,0.3c-0.3,0.2-0.4,0.5-0.4,0.8
		c0,0.6,0.3,0.9,0.8,1.1c0.4,0.1,0.7,0.2,0.8,0.2l0.2,0.3c0.2,0.2,0.3,0.6,0.3,1l0.2,20.7c0,0.5-0.1,0.8-0.2,1l-0.2,0.3
		c-0.1,0-0.3,0.1-0.8,0.3c-0.5,0.2-0.8,0.6-0.8,1.2c0,0.3,0.1,0.6,0.4,0.8c0.3,0.2,0.7,0.3,1.2,0.3h0.5l9.1-0.1l0.7,0
		c0.6,0,1-0.1,1.3-0.3c0.4-0.2,0.5-0.5,0.5-0.9c0-0.6-0.4-1-1-1.1c-0.5-0.1-0.8-0.2-0.9-0.3l-0.3-0.3c-0.2-0.3-0.3-0.6-0.3-1.2
		L399.5,199.9L399.5,199.9z M377.2,228.9l0-2.5c1.1-0.1,2.2-0.5,3.3-1.3c0.6-0.4,1.2-0.9,1.7-1.6c0.5-0.7,0.8-1.4,1.1-2.2
		c0.1-0.4,0.3-0.8,0.5-0.9l0.7-0.3c0.3,0,0.6,0.1,0.8,0.4c0.2,0.2,0.3,0.5,0.3,0.9c0,0.6-0.2,1.4-0.7,2.2c-0.5,0.9-1,1.7-1.8,2.4
		c-0.9,0.9-1.8,1.6-2.7,2.1C379.4,228.5,378.4,228.8,377.2,228.9L377.2,228.9z M376.9,202.1l0-2.5c0.7,0.1,1.2,0.2,1.6,0.4
		c0.4,0.1,1.2,0.4,2.3,0.8c0.7,0.3,1.2,0.4,1.4,0.4c0.4,0,0.7-0.2,0.9-0.5l0.3-0.5c0.2-0.3,0.5-0.5,0.9-0.5c0.4,0,0.6,0.1,0.8,0.3
		c0.2,0.2,0.3,0.5,0.3,1l0.1,8.6c0,0.6-0.1,1-0.4,1.2l-0.8,0.4c-0.3,0-0.6-0.1-0.8-0.3c-0.2-0.2-0.4-0.6-0.5-1
		c-0.3-1.1-0.6-1.9-0.8-2.6c-0.6-1.3-1.3-2.4-2.1-3.2c-0.5-0.5-1-1-1.5-1.3C378.1,202.3,377.5,202.2,376.9,202.1L376.9,202.1z
		 M375.3,199.6v2.5c-0.8,0.1-1.4,0.5-1.8,1.1c-0.4,0.6-0.6,1.4-0.6,2.5l0.1,17.1v0.9c0,0.3,0.1,0.6,0.2,1c0.1,0.4,0.3,0.6,0.5,0.9
		l0.7,0.6c0.3,0.1,0.6,0.2,1,0.2l0,2.5c-2.6,0-4.9-0.6-6.9-2c-1.7-1.2-3-2.8-3.9-4.9c-0.9-2.1-1.3-4.5-1.4-7.3c0-2.1,0.3-4,0.8-5.8
		c0.5-1.8,1.4-3.3,2.4-4.7c1.1-1.3,2.4-2.4,3.9-3.3c1.5-0.8,3-1.2,4.4-1.2L375.3,199.6L375.3,199.6z M350.1,202l0-2.2
		c1.5,0.1,2.8,0.4,4,0.9c1.2,0.5,2.3,1.3,3.4,2.3c2.8,2.7,4.2,6.5,4.2,11.4c0,4.8-1.3,8.5-3.9,11.2c-2,2.1-4.5,3.2-7.6,3.5v-2.3
		c0.4-0.1,0.6-0.2,0.8-0.3l0.5-0.6c0.4-0.6,0.5-1.4,0.5-2.6l-0.1-18.5c0-0.7-0.1-1.3-0.4-1.7l-0.6-0.7
		C350.8,202.3,350.4,202.2,350.1,202L350.1,202z M348.4,202c-0.7,0.3-1.2,0.6-1.4,1c-0.3,0.4-0.4,1-0.4,1.9l0.1,18.5
		c0,1.2,0.2,2.1,0.5,2.6c0.3,0.4,0.8,0.7,1.4,0.9l0,2.3c-3-0.2-5.5-1.4-7.6-3.4c-2.7-2.7-4-6.4-4.1-11.2c0-2.4,0.3-4.5,1-6.5
		c0.7-1.9,1.7-3.6,3.1-5c1-1,2.1-1.8,3.3-2.4c1.2-0.5,2.5-0.9,4-0.9L348.4,202L348.4,202z M335.2,200.5l0.1,8.5c0,0.4-0.1,0.7-0.3,1
		c-0.2,0.3-0.5,0.4-0.9,0.4c-0.3,0-0.6-0.1-0.8-0.3c-0.2-0.2-0.4-0.5-0.5-0.9l-0.2-1.3c-0.2-1.3-0.6-2.4-1.2-3.3
		c-0.4-0.6-0.9-1-1.5-1.4l0-2.5L335.2,200.5L335.2,200.5z M328.1,200.5l-9,0.1l0.2,24.3c0,0.5-0.1,0.9-0.3,1.2l-0.3,0.3
		c-0.1,0-0.4,0.1-0.9,0.3c-0.6,0.2-1,0.5-1,1.2c0,0.4,0.1,0.6,0.5,0.8c0.3,0.2,0.8,0.3,1.3,0.3l0.7,0l9.1-0.1l0.7,0
		c0.6,0,1.1-0.1,1.3-0.3c0.4-0.2,0.5-0.5,0.5-0.9c0-0.6-0.3-1-1-1.2c-0.5-0.1-0.9-0.2-0.9-0.3l-0.3-0.3c-0.2-0.2-0.3-0.6-0.3-1.2
		L328.1,200.5L328.1,200.5z M312.1,200.7l5.4,0l0,2.5c-0.6,0.4-1.2,0.9-1.5,1.4c-0.6,0.9-1,2.1-1.2,3.3l-0.2,1.3
		c-0.1,0.4-0.2,0.7-0.4,0.9c-0.2,0.2-0.5,0.3-0.8,0.4c-0.4,0-0.6-0.1-0.9-0.4c-0.2-0.2-0.4-0.5-0.4-0.9L312.1,200.7L312.1,200.7z
		 M298.9,202.5v-2.2c1.4,0,2.8,0.3,4,0.9c1.2,0.5,2.3,1.3,3.4,2.3c2.8,2.7,4.2,6.5,4.2,11.4c0.1,4.7-1.2,8.5-3.9,11.2
		c-2,2.1-4.5,3.3-7.6,3.5l0-2.3c0.4-0.1,0.6-0.2,0.8-0.3l0.5-0.6c0.4-0.6,0.5-1.4,0.5-2.6l-0.2-18.5c0-0.7-0.1-1.3-0.4-1.7l-0.6-0.6
		C299.6,202.8,299.3,202.6,298.9,202.5L298.9,202.5z M297.2,202.5c-0.7,0.3-1.2,0.6-1.4,1c-0.3,0.4-0.4,1.1-0.4,1.9l0.2,18.5
		c0,1.2,0.2,2.1,0.5,2.6c0.3,0.4,0.7,0.7,1.4,0.9l0,2.3c-3-0.2-5.6-1.3-7.6-3.4c-2.7-2.6-4-6.4-4-11.1c0-2.4,0.3-4.6,1-6.5
		c0.7-1.9,1.7-3.6,3.1-5c1-1,2.2-1.8,3.3-2.4c1.2-0.5,2.6-0.9,4-0.9L297.2,202.5L297.2,202.5z M272.1,201l9-0.1h0.5
		c1,0,1.5,0.4,1.5,1.1c0,0.5-0.3,0.9-0.8,1.1c-0.5,0.1-0.7,0.3-0.8,0.3l-0.3,0.2c-0.1,0.2-0.2,0.5-0.2,1l0.2,20.7
		c0,0.5,0.1,0.8,0.2,1l0.2,0.2c0.1,0,0.4,0.1,0.8,0.3c0.5,0.2,0.8,0.6,0.8,1.1c0,0.7-0.5,1.1-1.5,1.1l-0.5,0l-9.1,0.1h-0.6
		c-0.6,0-1-0.1-1.4-0.3c-0.3-0.2-0.5-0.5-0.5-0.9c0-0.6,0.3-1,1-1.1c0.5-0.1,0.8-0.3,0.9-0.3l0.3-0.2c0.2-0.3,0.3-0.6,0.3-1.2
		L272.1,201L272.1,201z M256.8,210.6l2.2,6.2l0.1,6.2c0,0.6,0,1.1,0.1,1.4c0.1,0.2,0.2,0.6,0.3,0.9c0.3,0.6,0.7,1,1.2,1.3l0.8,0.5
		c0.5,0.3,0.8,0.6,0.8,1c0,0.7-0.5,1-1.5,1.1l-5.1,0c-1,0-1.5-0.3-1.5-1l0.1-0.5l0.5-0.4c1.5-0.8,2.3-2.3,2.2-4.3L256.8,210.6
		L256.8,210.6z M264.6,201.1l-9.5,0.1c-0.5,0-0.8,0.1-1.1,0.3c-0.3,0.2-0.4,0.5-0.4,0.9c0,0.6,0.5,1.1,1.3,1.3
		c0.4,0.1,0.8,0.2,0.9,0.4c0.3,0.3,0.6,0.8,0.9,1.6l8.1,23.7l1.1,0l4.5-16l0-6.9l-1.7,6.3L264.6,201.1z"/>
</g>
</svg>
